<svg width="17" height="20" viewBox="0 0 17 20" fill="none" xmlns="http://www.w3.org/2000/svg">
<g clip-path="url(#clip0_89_78)">
<path d="M14.0399 19.1994C12.9559 20.2514 11.7599 20.0874 10.6199 19.5914C9.40795 19.0854 8.29995 19.0534 7.01995 19.5914C5.42595 20.2794 4.57995 20.0794 3.61995 19.1994C-1.80005 13.6195 -1.00005 5.11951 5.15995 4.79952C6.65395 4.87952 7.69995 5.62551 8.57995 5.68751C9.88795 5.42151 11.1399 4.65952 12.5399 4.75952C14.2219 4.89552 15.4799 5.55951 16.3199 6.75351C12.8599 8.8335 13.6799 13.3935 16.8579 14.6735C16.2219 16.3435 15.4059 17.9934 14.0379 19.2134L14.0399 19.1994ZM8.45995 4.73952C8.29795 2.25952 10.3079 0.21953 12.6199 0.0195312C12.9379 2.87952 10.0199 5.01952 8.45995 4.73952Z" fill="#101623"/>
</g>
<defs>
<clipPath id="clip0_89_78">
<rect width="16.84" height="20" fill="white"/>
</clipPath>
</defs>
</svg>
