<svg width="17" height="20" viewBox="0 0 17 20" fill="none" xmlns="http://www.w3.org/2000/svg">
<g clip-path="url(#clip0_6_570)">
<path d="M14.04 19.1999C12.956 20.2519 11.76 20.0879 10.62 19.5919C9.40802 19.0859 8.30002 19.0539 7.02002 19.5919C5.42602 20.2799 4.58002 20.0799 3.62002 19.1999C-1.79998 13.62 -0.999985 5.12 5.16002 4.80001C6.65402 4.88001 7.70002 5.626 8.58002 5.688C9.88801 5.422 11.14 4.66001 12.54 4.76001C14.222 4.89601 15.48 5.56 16.32 6.754C12.86 8.83399 13.68 13.394 16.858 14.674C16.222 16.344 15.406 17.9939 14.038 19.2139L14.04 19.1999ZM8.46002 4.74001C8.29802 2.26001 10.308 0.220019 12.62 0.0200195C12.938 2.88001 10.02 5.02001 8.46002 4.74001Z" fill="#101623"/>
</g>
<defs>
<clipPath id="clip0_6_570">
<rect width="16.84" height="20" fill="white"/>
</clipPath>
</defs>
</svg>
