<svg width="17" height="20" viewBox="0 0 17 20" fill="none" xmlns="http://www.w3.org/2000/svg">
<g clip-path="url(#clip0_89_830)">
<path d="M14.04 19.1994C12.956 20.2514 11.76 20.0874 10.62 19.5914C9.40802 19.0854 8.30002 19.0534 7.02002 19.5914C5.42602 20.2794 4.58002 20.0794 3.62002 19.1994C-1.79998 13.6195 -0.999985 5.11951 5.16002 4.79952C6.65402 4.87952 7.70002 5.62551 8.58002 5.68751C9.88802 5.42151 11.14 4.65952 12.54 4.75952C14.222 4.89552 15.48 5.55951 16.32 6.75351C12.86 8.8335 13.68 13.3935 16.858 14.6735C16.222 16.3435 15.406 17.9934 14.038 19.2134L14.04 19.1994ZM8.46002 4.73952C8.29802 2.25952 10.308 0.21953 12.62 0.0195312C12.938 2.87952 10.02 5.01952 8.46002 4.73952Z" fill="#101623"/>
</g>
<defs>
<clipPath id="clip0_89_830">
<rect width="16.84" height="20" fill="white"/>
</clipPath>
</defs>
</svg>
