<svg width="17" height="20" viewBox="0 0 17 20" fill="none" xmlns="http://www.w3.org/2000/svg">
<g clip-path="url(#clip0_6_105)">
<path d="M14.0399 19.1999C12.9559 20.2519 11.7599 20.0879 10.6199 19.5919C9.40797 19.0859 8.29997 19.0539 7.01997 19.5919C5.42597 20.2799 4.57997 20.0799 3.61997 19.1999C-1.80003 13.62 -1.00003 5.12 5.15997 4.80001C6.65397 4.88001 7.69997 5.626 8.57997 5.688C9.88797 5.422 11.1399 4.66001 12.5399 4.76001C14.2219 4.89601 15.4799 5.56 16.32 6.754C12.86 8.83399 13.68 13.394 16.858 14.674C16.222 16.344 15.4059 17.9939 14.0379 19.2139L14.0399 19.1999ZM8.45997 4.74001C8.29797 2.26001 10.3079 0.220019 12.6199 0.0200195C12.9379 2.88001 10.0199 5.02001 8.45997 4.74001Z" fill="#101623"/>
</g>
<defs>
<clipPath id="clip0_6_105">
<rect width="16.84" height="20" fill="white"/>
</clipPath>
</defs>
</svg>
