<svg width="18" height="12" viewBox="0 0 18 12" fill="none" xmlns="http://www.w3.org/2000/svg">
<path fill-rule="evenodd" clip-rule="evenodd" d="M16.6667 0.666992H15.6667C15.1144 0.666992 14.6667 1.11471 14.6667 1.66699V10.3337C14.6667 10.886 15.1144 11.3337 15.6667 11.3337H16.6667C17.2189 11.3337 17.6667 10.886 17.6667 10.3337V1.66699C17.6667 1.11471 17.2189 0.666992 16.6667 0.666992ZM11 3.00033H12C12.5523 3.00033 13 3.44804 13 4.00033V10.3337C13 10.8859 12.5523 11.3337 12 11.3337H11C10.4477 11.3337 9.99999 10.8859 9.99999 10.3337V4.00033C9.99999 3.44804 10.4477 3.00033 11 3.00033ZM7.33332 5.33366H6.33332C5.78104 5.33366 5.33332 5.78137 5.33332 6.33366V10.3337C5.33332 10.8859 5.78104 11.3337 6.33332 11.3337H7.33332C7.8856 11.3337 8.33332 10.8859 8.33332 10.3337V6.33366C8.33332 5.78137 7.8856 5.33366 7.33332 5.33366ZM2.66666 7.33366H1.66666C1.11437 7.33366 0.666656 7.78137 0.666656 8.33366V10.3337C0.666656 10.8859 1.11437 11.3337 1.66666 11.3337H2.66666C3.21894 11.3337 3.66666 10.8859 3.66666 10.3337V8.33366C3.66666 7.78137 3.21894 7.33366 2.66666 7.33366Z" fill="#D9D9D9"/>
</svg>
