<svg width="18" height="12" viewBox="0 0 18 12" fill="none" xmlns="http://www.w3.org/2000/svg">
<path fill-rule="evenodd" clip-rule="evenodd" d="M16.6666 0.666504H15.6666C15.1143 0.666504 14.6666 1.11422 14.6666 1.6665V10.3332C14.6666 10.8855 15.1143 11.3332 15.6666 11.3332H16.6666C17.2189 11.3332 17.6666 10.8855 17.6666 10.3332V1.6665C17.6666 1.11422 17.2189 0.666504 16.6666 0.666504ZM11 2.99984H12C12.5522 2.99984 13 3.44755 13 3.99984V10.3332C13 10.8855 12.5522 11.3332 12 11.3332H11C10.4477 11.3332 9.99996 10.8855 9.99996 10.3332V3.99984C9.99996 3.44755 10.4477 2.99984 11 2.99984ZM7.33329 5.33317H6.33329C5.78101 5.33317 5.33329 5.78089 5.33329 6.33317V10.3332C5.33329 10.8855 5.78101 11.3332 6.33329 11.3332H7.33329C7.88557 11.3332 8.33329 10.8855 8.33329 10.3332V6.33317C8.33329 5.78089 7.88557 5.33317 7.33329 5.33317ZM2.66663 7.33317H1.66663C1.11434 7.33317 0.666626 7.78088 0.666626 8.33317V10.3332C0.666626 10.8855 1.11434 11.3332 1.66663 11.3332H2.66663C3.21891 11.3332 3.66663 10.8855 3.66663 10.3332V8.33317C3.66663 7.78088 3.21891 7.33317 2.66663 7.33317Z" fill="#D9D9D9"/>
</svg>
