<svg width="24" height="24" viewBox="0 0 24 24" fill="none" xmlns="http://www.w3.org/2000/svg">
<rect x="0.75" y="0.75" width="22.5" height="22.5" rx="7.25" fill="white"/>
<path d="M8.61367 12.22C8.32078 11.9271 7.84591 11.9271 7.55301 12.22C7.26012 12.5129 7.26012 12.9878 7.55301 13.2807L8.61367 12.22ZM11.4167 16.0837L10.8863 16.614C11.1792 16.9069 11.6541 16.9069 11.947 16.614L11.4167 16.0837ZM18.6136 9.94732C18.9065 9.65443 18.9065 9.17955 18.6136 8.88666C18.3207 8.59377 17.8459 8.59377 17.553 8.88666L18.6136 9.94732ZM7.55301 13.2807L10.8863 16.614L11.947 15.5533L8.61367 12.22L7.55301 13.2807ZM11.947 16.614L18.6136 9.94732L17.553 8.88666L10.8863 15.5533L11.947 16.614Z" fill="#227DDE"/>
<rect x="0.75" y="0.75" width="22.5" height="22.5" rx="7.25" stroke="#D3D6DA" stroke-width="1.5"/>
</svg>
