<svg width="24" height="24" viewBox="0 0 24 24" fill="none" xmlns="http://www.w3.org/2000/svg">
<rect x="0.75" y="0.75" width="22.5" height="22.5" rx="7.25" fill="white"/>
<path d="M8.61367 12.2196C8.32078 11.9267 7.84591 11.9267 7.55301 12.2196C7.26012 12.5125 7.26012 12.9874 7.55301 13.2803L8.61367 12.2196ZM11.4167 16.0833L10.8863 16.6136C11.1792 16.9065 11.6541 16.9065 11.947 16.6136L11.4167 16.0833ZM18.6136 9.94696C18.9065 9.65406 18.9065 9.17919 18.6136 8.8863C18.3207 8.5934 17.8459 8.5934 17.553 8.8863L18.6136 9.94696ZM7.55301 13.2803L10.8863 16.6136L11.947 15.553L8.61367 12.2196L7.55301 13.2803ZM11.947 16.6136L18.6136 9.94696L17.553 8.8863L10.8863 15.553L11.947 16.6136Z" fill="#227DDE"/>
<rect x="0.75" y="0.75" width="22.5" height="22.5" rx="7.25" stroke="#D3D6DA" stroke-width="1.5"/>
</svg>
