<svg width="24" height="18" viewBox="0 0 24 18" fill="none" xmlns="http://www.w3.org/2000/svg">
<path fill-rule="evenodd" clip-rule="evenodd" d="M4.21283 4.77835C4.19791 4.79199 4.16864 4.8203 4.13633 4.85212C4.11292 4.87518 4.09421 4.89383 4.05548 4.93256L1.91232 7.07572C1.8562 7.13449 1.81722 7.17397 1.72664 7.26454C1.67611 7.31508 1.639 7.3539 1.55916 7.43872C1.41071 7.58239 1.25417 7.7539 1.10748 7.93495C0.969168 8.08127 0.858657 8.25169 0.781475 8.43787C0.622572 8.92198 0.622572 9.39253 0.764119 9.82955L0.783078 9.88048C0.860884 10.0647 0.970736 10.2336 1.10746 10.3793C1.25427 10.5591 1.4108 10.7307 1.57632 10.8934C1.639 10.9607 1.67611 10.9995 1.72664 11.05L1.91232 11.2357L3.8663 13.1928C3.95767 13.2842 4.00254 13.3286 4.05452 13.3782C4.10992 13.4366 4.1681 13.4945 4.22652 13.5495C4.23696 13.5588 6.72734 16.0476 6.72734 16.0476C6.80426 16.1245 6.8663 16.1849 7.00587 16.3197C7.02068 16.3342 7.04317 16.357 7.05007 16.3643C7.086 16.4021 7.10683 16.4239 7.12073 16.4378C7.41115 16.7286 7.74503 16.973 8.11031 17.1622C8.48458 17.3485 8.87402 17.4766 9.27574 17.5473C9.65523 17.6094 10.0311 17.6426 10.408 17.648C10.4728 17.6493 10.5267 17.65 10.6468 17.6512C10.7627 17.6524 10.8138 17.653 10.8766 17.6543L18.2973 17.6544C18.3739 17.653 18.4256 17.6524 18.5428 17.6512C18.664 17.65 18.7185 17.6493 18.788 17.648C19.1664 17.6413 19.545 17.607 19.9196 17.5453C20.3302 17.4759 20.7252 17.3455 21.0939 17.1581C21.4653 16.9694 21.8045 16.7227 22.0984 16.4272C22.3907 16.1337 22.6362 15.7964 22.8257 15.4275C23.0127 15.053 23.1413 14.6599 23.2104 14.2543C23.2732 13.8752 23.3066 13.4948 23.3106 13.1135C23.3139 13.0351 23.3154 12.9601 23.3176 12.7941C23.3186 12.7152 23.3191 12.6805 23.32 12.6377L23.3201 5.64827C23.3191 5.59381 23.3186 5.55923 23.3176 5.48178L23.3165 5.40132C23.315 5.29986 23.3132 5.22372 23.3101 5.14791C23.306 4.789 23.2739 4.41343 23.2147 4.04169C23.1423 3.63005 23.0142 3.2406 22.8325 2.87542C22.6415 2.50247 22.3977 2.1677 22.1066 1.87667C21.8164 1.58426 21.4794 1.33849 21.1101 1.15041C20.7431 0.966584 20.3555 0.838202 19.9555 0.76736C19.5718 0.706264 19.1953 0.674219 18.818 0.669644C18.6932 0.664408 18.5827 0.663303 18.3383 0.663303C18.2582 0.661881 18.1645 0.660998 18.0592 0.660555C17.98 0.660222 17.917 0.660156 17.7749 0.660156H11.4525C11.1689 0.660156 11.0405 0.660694 10.8786 0.663391C10.6447 0.663303 10.5342 0.664408 10.3919 0.6701C10.0331 0.673929 9.65721 0.706019 9.28518 0.765648C8.87402 0.837911 8.48458 0.966067 8.11939 1.14776C7.74504 1.34154 7.41115 1.58597 7.12046 1.87702C7.10683 1.89064 7.086 1.91249 7.05149 1.94882C7.04317 1.95753 7.00587 1.9949 7.00587 1.9949C6.8663 2.12965 6.80426 2.19007 6.72734 2.26699L6.40634 2.58799L4.27139 4.72604C4.25268 4.74097 4.23266 4.75852 4.21283 4.77835ZM17.7749 1.91899C17.9153 1.91899 17.9771 1.91905 18.054 1.91938C18.1544 1.9198 18.2429 1.92063 18.3278 1.92205C18.5659 1.92214 18.6652 1.92313 18.7852 1.92793C19.1189 1.93222 19.4345 1.95908 19.7469 2.00874C20.0163 2.05656 20.288 2.14654 20.5426 2.27405C20.7889 2.39952 21.0171 2.56594 21.2148 2.76516C21.4149 2.96517 21.5809 3.19319 21.7087 3.44273C21.8333 3.69314 21.9235 3.96719 21.9732 4.24988C22.0212 4.55117 22.048 4.86559 22.0519 5.18072C22.0548 5.26151 22.0564 5.32819 22.0578 5.42001L22.0589 5.49842C22.0599 5.5787 22.0605 5.61519 22.0614 5.66086L22.0612 12.6254C22.0605 12.6594 22.0599 12.696 22.0589 12.7776C22.0568 12.9327 22.0555 13.0003 22.0523 13.0822C22.0485 13.417 22.0208 13.7331 21.969 14.0457C21.9211 14.3264 21.8313 14.6013 21.7027 14.8587C21.5758 15.1056 21.4072 15.3373 21.2062 15.5391C21.0063 15.7401 20.776 15.9076 20.5237 16.0358C20.2683 16.1656 19.9948 16.2559 19.7124 16.3037C19.4008 16.3549 19.0831 16.3837 18.7646 16.3894C18.6992 16.3906 18.6475 16.3913 18.5303 16.3924C18.4091 16.3936 18.3546 16.3943 18.285 16.3957L10.8891 16.3956C10.8334 16.3943 10.7795 16.3936 10.6594 16.3924C10.5434 16.3913 10.4924 16.3906 10.4296 16.3894C10.1112 16.3848 9.79709 16.357 9.48629 16.3062C9.21117 16.2578 8.93711 16.1676 8.68013 16.0397C8.43899 15.9148 8.21026 15.7473 8.01112 15.5479L7.96197 15.4964C7.91313 15.4453 7.89198 15.4235 7.86767 15.4019C7.74228 15.2808 7.68519 15.2252 7.61747 15.1574L5.12184 12.6618L5.10909 12.6502C5.09365 12.6361 5.08334 12.6268 5.07574 12.6201C5.03064 12.5767 4.99376 12.5395 4.95888 12.5024C4.88683 12.4326 4.84735 12.3936 4.75678 12.303L2.80281 10.3459L2.61677 10.1598C2.57814 10.1212 2.54706 10.0887 2.47584 10.013C2.32084 9.86003 2.19078 9.71687 2.06912 9.5667L2.03106 9.52386C1.99933 9.49127 1.97299 9.4539 1.95297 9.41317C1.90455 9.24535 1.90473 9.0672 1.95352 8.89946C1.97239 8.86037 1.99759 8.8246 2.02815 8.79362L2.07105 8.74542C2.19071 8.59623 2.31943 8.45455 2.45648 8.32117C2.54706 8.22581 2.57814 8.1933 2.61677 8.15467C2.71502 8.05641 2.75891 8.01197 2.81371 7.95429L4.75678 6.01151L4.9456 5.82269C4.98319 5.7851 4.99932 5.76904 5.01974 5.74892L5.0615 5.71138C5.09164 5.68436 5.10837 5.66935 5.12499 5.65274L7.29679 3.47779L7.61747 3.15711C7.68519 3.08939 7.74228 3.03374 7.86767 2.91264C7.89198 2.89104 7.91313 2.86925 7.96035 2.81981L8.01085 2.76688C8.21026 2.56723 8.43899 2.39978 8.68922 2.27019C8.93712 2.14695 9.21117 2.05676 9.49386 2.00703C9.79527 1.95879 10.1094 1.93197 10.4242 1.92839C10.5621 1.92313 10.6615 1.92214 10.8891 1.92214C11.0521 1.91951 11.1759 1.91899 11.4525 1.91899H17.7749ZM11.814 12.4876C11.7628 12.538 11.7016 12.5791 11.6326 12.6076C11.4206 12.6952 11.1768 12.6462 11.015 12.4837C10.7949 12.2627 10.7949 11.9054 11.015 11.6844C11.0485 11.6506 11.0856 11.6218 11.1253 11.5981L13.5652 9.15557L11.015 6.60812L11.0227 6.60042C10.9727 6.54947 10.932 6.48864 10.9037 6.42011C10.8161 6.20813 10.865 5.96429 11.0276 5.80247C11.2486 5.58242 11.6059 5.58242 11.8269 5.80247C11.8591 5.8345 11.8868 5.86975 11.9099 5.90733L14.3632 8.35668L16.8329 5.88431C16.8523 5.8555 16.8747 5.82808 16.9 5.80247C17.0612 5.64057 17.3041 5.59183 17.5153 5.67902C17.7264 5.76621 17.8642 5.97212 17.8642 6.20058C17.8642 6.35235 17.8034 6.49418 17.7006 6.59785L17.7077 6.60498L15.1616 9.15382L17.6445 11.6327C17.6669 11.6491 17.6884 11.6674 17.7088 11.6875C17.8707 11.8487 17.9195 12.0916 17.8323 12.3027C17.7451 12.5139 17.5392 12.6517 17.3107 12.6517C17.1584 12.6517 17.0161 12.5904 16.9124 12.4871L16.9063 12.4931L14.3634 9.95293L11.8227 12.4963L11.814 12.4876Z" fill="#D9D9D9"/>
</svg>
