<svg width="24" height="18" viewBox="0 0 24 18" fill="none" xmlns="http://www.w3.org/2000/svg">
<path fill-rule="evenodd" clip-rule="evenodd" d="M4.2128 4.77835C4.19788 4.79199 4.16861 4.8203 4.1363 4.85212C4.11289 4.87518 4.09418 4.89383 4.05545 4.93256L1.91229 7.07572C1.85617 7.13449 1.81719 7.17397 1.72661 7.26454C1.67608 7.31508 1.63897 7.3539 1.55913 7.43872C1.41068 7.58239 1.25414 7.7539 1.10745 7.93495C0.969137 8.08127 0.858626 8.25169 0.781444 8.43787C0.622542 8.92198 0.622542 9.39253 0.764088 9.82955L0.783047 9.88048C0.860853 10.0647 0.970705 10.2336 1.10743 10.3793C1.25424 10.5591 1.41077 10.7307 1.57629 10.8934C1.63897 10.9607 1.67608 10.9995 1.72661 11.05L1.91229 11.2357L3.86627 13.1928C3.95764 13.2842 4.00251 13.3286 4.05449 13.3782C4.10989 13.4366 4.16807 13.4945 4.22649 13.5495C4.23693 13.5588 6.72731 16.0476 6.72731 16.0476C6.80423 16.1245 6.86627 16.1849 7.00584 16.3197C7.02065 16.3342 7.04314 16.357 7.05004 16.3643C7.08597 16.4021 7.1068 16.4239 7.1207 16.4378C7.41112 16.7286 7.745 16.973 8.11028 17.1622C8.48455 17.3485 8.87399 17.4766 9.27571 17.5473C9.6552 17.6094 10.0311 17.6426 10.4079 17.648C10.4728 17.6493 10.5266 17.65 10.6467 17.6512C10.7626 17.6524 10.8137 17.653 10.8765 17.6543L18.2972 17.6544C18.3738 17.653 18.4255 17.6524 18.5427 17.6512C18.6639 17.65 18.7184 17.6493 18.7879 17.648C19.1663 17.6413 19.5449 17.607 19.9195 17.5453C20.3301 17.4759 20.7251 17.3455 21.0938 17.1581C21.4652 16.9694 21.8044 16.7227 22.0983 16.4272C22.3906 16.1337 22.6361 15.7964 22.8256 15.4275C23.0126 15.053 23.1412 14.6599 23.2103 14.2543C23.2731 13.8752 23.3065 13.4948 23.3105 13.1135C23.3138 13.0351 23.3153 12.9601 23.3175 12.7941C23.3185 12.7152 23.319 12.6805 23.3199 12.6377L23.32 5.64827C23.319 5.59381 23.3185 5.55923 23.3175 5.48178L23.3164 5.40132C23.3149 5.29986 23.3131 5.22372 23.31 5.14791C23.3059 4.789 23.2738 4.41343 23.2146 4.04169C23.1422 3.63005 23.0141 3.2406 22.8324 2.87542C22.6414 2.50247 22.3976 2.1677 22.1065 1.87667C21.8163 1.58426 21.4793 1.33849 21.11 1.15041C20.743 0.966584 20.3554 0.838202 19.9554 0.76736C19.5717 0.706264 19.1952 0.674219 18.8179 0.669644C18.6931 0.664408 18.5826 0.663303 18.3382 0.663303C18.2581 0.661881 18.1644 0.660998 18.0591 0.660555C17.9799 0.660222 17.9169 0.660156 17.7748 0.660156H11.4524C11.1688 0.660156 11.0404 0.660694 10.8785 0.663391C10.6446 0.663303 10.5341 0.664408 10.3918 0.6701C10.0331 0.673929 9.65718 0.706019 9.28515 0.765648C8.87399 0.837911 8.48455 0.966067 8.11936 1.14776C7.74501 1.34154 7.41112 1.58597 7.12043 1.87702C7.1068 1.89064 7.08597 1.91249 7.05146 1.94882C7.04314 1.95753 7.00584 1.9949 7.00584 1.9949C6.86627 2.12965 6.80423 2.19007 6.72731 2.26699L6.40631 2.58799L4.27136 4.72604C4.25265 4.74097 4.23263 4.75852 4.2128 4.77835ZM17.7748 1.91899C17.9152 1.91899 17.977 1.91905 18.0539 1.91938C18.1543 1.9198 18.2428 1.92063 18.3277 1.92205C18.5658 1.92214 18.6651 1.92313 18.7851 1.92793C19.1188 1.93222 19.4344 1.95908 19.7468 2.00874C20.0162 2.05656 20.2879 2.14654 20.5425 2.27405C20.7888 2.39952 21.017 2.56594 21.2147 2.76516C21.4148 2.96517 21.5808 3.19319 21.7086 3.44273C21.8332 3.69314 21.9234 3.96719 21.9731 4.24988C22.0211 4.55117 22.0479 4.86559 22.0518 5.18072C22.0547 5.26151 22.0563 5.32819 22.0577 5.42001L22.0588 5.49842C22.0598 5.5787 22.0604 5.61519 22.0613 5.66086L22.0611 12.6254C22.0604 12.6594 22.0598 12.696 22.0588 12.7776C22.0567 12.9327 22.0554 13.0003 22.0522 13.0822C22.0484 13.417 22.0207 13.7331 21.9689 14.0457C21.921 14.3264 21.8312 14.6013 21.7026 14.8587C21.5757 15.1056 21.4071 15.3373 21.2061 15.5391C21.0062 15.7401 20.7759 15.9076 20.5236 16.0358C20.2682 16.1656 19.9947 16.2559 19.7123 16.3037C19.4007 16.3549 19.083 16.3837 18.7645 16.3894C18.6991 16.3906 18.6474 16.3913 18.5302 16.3924C18.409 16.3936 18.3545 16.3943 18.2849 16.3957L10.889 16.3956C10.8333 16.3943 10.7794 16.3936 10.6593 16.3924C10.5434 16.3913 10.4924 16.3906 10.4296 16.3894C10.1112 16.3848 9.79706 16.357 9.48626 16.3062C9.21114 16.2578 8.93708 16.1676 8.6801 16.0397C8.43896 15.9148 8.21023 15.7473 8.01109 15.5479L7.96194 15.4964C7.9131 15.4453 7.89195 15.4235 7.86764 15.4019C7.74225 15.2808 7.68516 15.2252 7.61744 15.1574L5.12181 12.6618L5.10906 12.6502C5.09362 12.6361 5.0833 12.6268 5.07571 12.6201C5.03061 12.5767 4.99373 12.5395 4.95885 12.5024C4.8868 12.4326 4.84732 12.3936 4.75675 12.303L2.80278 10.3459L2.61674 10.1598C2.57811 10.1212 2.54703 10.0887 2.47581 10.013C2.32081 9.86003 2.19075 9.71687 2.06909 9.5667L2.03103 9.52386C1.9993 9.49127 1.97296 9.4539 1.95294 9.41317C1.90452 9.24535 1.9047 9.0672 1.95349 8.89946C1.97236 8.86037 1.99756 8.8246 2.02812 8.79362L2.07102 8.74542C2.19068 8.59623 2.3194 8.45455 2.45645 8.32117C2.54703 8.22581 2.57811 8.1933 2.61674 8.15467C2.71499 8.05641 2.75888 8.01197 2.81368 7.95429L4.75675 6.01151L4.94557 5.82269C4.98316 5.7851 4.99929 5.76904 5.01971 5.74892L5.06147 5.71138C5.09161 5.68436 5.10834 5.66935 5.12496 5.65274L7.29676 3.47779L7.61744 3.15711C7.68516 3.08939 7.74225 3.03374 7.86764 2.91264C7.89195 2.89104 7.9131 2.86925 7.96032 2.81981L8.01082 2.76688C8.21023 2.56723 8.43896 2.39978 8.68919 2.27019C8.93709 2.14695 9.21114 2.05676 9.49383 2.00703C9.79524 1.95879 10.1094 1.93197 10.4242 1.92839C10.5621 1.92313 10.6614 1.92214 10.889 1.92214C11.052 1.91951 11.1758 1.91899 11.4524 1.91899H17.7748ZM11.8139 12.4876C11.7628 12.538 11.7016 12.5791 11.6326 12.6076C11.4206 12.6952 11.1768 12.6462 11.0149 12.4837C10.7949 12.2627 10.7949 11.9054 11.0149 11.6844C11.0485 11.6506 11.0856 11.6218 11.1252 11.5981L13.5651 9.15557L11.0149 6.60812L11.0226 6.60042C10.9727 6.54947 10.9319 6.48864 10.9036 6.42011C10.8161 6.20813 10.865 5.96429 11.0275 5.80247C11.2486 5.58242 11.6059 5.58242 11.8269 5.80247C11.8591 5.8345 11.8868 5.86975 11.9099 5.90733L14.3632 8.35668L16.8329 5.88431C16.8523 5.8555 16.8747 5.82808 16.9 5.80247C17.0612 5.64057 17.3041 5.59183 17.5152 5.67902C17.7264 5.76621 17.8641 5.97212 17.8641 6.20058C17.8641 6.35235 17.8033 6.49418 17.7006 6.59785L17.7077 6.60498L15.1616 9.15382L17.6444 11.6327C17.6669 11.6491 17.6884 11.6674 17.7088 11.6875C17.8707 11.8487 17.9194 12.0916 17.8322 12.3027C17.745 12.5139 17.5391 12.6517 17.3107 12.6517C17.1584 12.6517 17.0161 12.5904 16.9123 12.4871L16.9063 12.4931L14.3633 9.95293L11.8227 12.4963L11.8139 12.4876Z" fill="#D9D9D9"/>
</svg>
