<svg width="24" height="18" viewBox="0 0 24 18" fill="none" xmlns="http://www.w3.org/2000/svg">
<path fill-rule="evenodd" clip-rule="evenodd" d="M4.21295 4.77835C4.19803 4.79199 4.16876 4.8203 4.13645 4.85212C4.11304 4.87518 4.09433 4.89383 4.0556 4.93256L1.91244 7.07572C1.85632 7.13449 1.81734 7.17397 1.72676 7.26454C1.67623 7.31508 1.63912 7.3539 1.55928 7.43872C1.41083 7.58239 1.25429 7.7539 1.1076 7.93495C0.96929 8.08127 0.858779 8.25169 0.781597 8.43787C0.622694 8.92198 0.622694 9.39253 0.764241 9.82955L0.7832 9.88048C0.861006 10.0647 0.970858 10.2336 1.10758 10.3793C1.2544 10.5591 1.41092 10.7307 1.57645 10.8934C1.63912 10.9607 1.67623 10.9995 1.72676 11.05L1.91244 11.2357L3.86642 13.1928C3.95779 13.2842 4.00266 13.3286 4.05464 13.3782C4.11004 13.4366 4.16822 13.4945 4.22664 13.5495C4.23708 13.5588 6.72746 16.0476 6.72746 16.0476C6.80438 16.1245 6.86642 16.1849 7.00599 16.3197C7.0208 16.3342 7.04329 16.357 7.05019 16.3643C7.08612 16.4021 7.10695 16.4239 7.12085 16.4378C7.41127 16.7286 7.74515 16.973 8.11043 17.1622C8.4847 17.3485 8.87414 17.4766 9.27586 17.5473C9.65535 17.6094 10.0313 17.6426 10.4081 17.648C10.4729 17.6493 10.5268 17.65 10.6469 17.6512C10.7628 17.6524 10.8139 17.653 10.8767 17.6543L18.2974 17.6544C18.374 17.653 18.4257 17.6524 18.5429 17.6512C18.6641 17.65 18.7186 17.6493 18.7881 17.648C19.1665 17.6413 19.5451 17.607 19.9197 17.5453C20.3303 17.4759 20.7253 17.3455 21.094 17.1581C21.4654 16.9694 21.8046 16.7227 22.0985 16.4272C22.3908 16.1337 22.6363 15.7964 22.8258 15.4275C23.0128 15.053 23.1414 14.6599 23.2105 14.2543C23.2733 13.8752 23.3067 13.4948 23.3107 13.1135C23.314 13.0351 23.3155 12.9601 23.3177 12.7941C23.3187 12.7152 23.3192 12.6805 23.3201 12.6377L23.3202 5.64827C23.3192 5.59381 23.3187 5.55923 23.3177 5.48178L23.3166 5.40132C23.3151 5.29986 23.3133 5.22372 23.3102 5.14791C23.3061 4.789 23.274 4.41343 23.2148 4.04169C23.1424 3.63005 23.0143 3.2406 22.8326 2.87542C22.6416 2.50247 22.3978 2.1677 22.1067 1.87667C21.8165 1.58426 21.4795 1.33849 21.1102 1.15041C20.7432 0.966584 20.3556 0.838202 19.9556 0.76736C19.5719 0.706264 19.1954 0.674219 18.8181 0.669644C18.6933 0.664408 18.5828 0.663303 18.3384 0.663303C18.2583 0.661881 18.1646 0.660998 18.0593 0.660555C17.9801 0.660222 17.9171 0.660156 17.775 0.660156H11.4526C11.169 0.660156 11.0406 0.660694 10.8787 0.663391C10.6448 0.663303 10.5343 0.664408 10.392 0.6701C10.0332 0.673929 9.65733 0.706019 9.2853 0.765648C8.87414 0.837911 8.4847 0.966067 8.11951 1.14776C7.74516 1.34154 7.41127 1.58597 7.12058 1.87702C7.10695 1.89064 7.08612 1.91249 7.05161 1.94882C7.04329 1.95753 7.00599 1.9949 7.00599 1.9949C6.86642 2.12965 6.80438 2.19007 6.72746 2.26699L6.40646 2.58799L4.27151 4.72604C4.2528 4.74097 4.23278 4.75852 4.21295 4.77835ZM17.775 1.91899C17.9154 1.91899 17.9772 1.91905 18.0541 1.91938C18.1545 1.9198 18.243 1.92063 18.3279 1.92205C18.566 1.92214 18.6653 1.92313 18.7853 1.92793C19.119 1.93222 19.4346 1.95908 19.747 2.00874C20.0164 2.05656 20.2881 2.14654 20.5427 2.27405C20.789 2.39952 21.0172 2.56594 21.2149 2.76516C21.415 2.96517 21.581 3.19319 21.7088 3.44273C21.8334 3.69314 21.9236 3.96719 21.9733 4.24988C22.0213 4.55117 22.0481 4.86559 22.052 5.18072C22.0549 5.26151 22.0565 5.32819 22.0579 5.42001L22.059 5.49842C22.06 5.5787 22.0606 5.61519 22.0615 5.66086L22.0613 12.6254C22.0606 12.6594 22.06 12.696 22.059 12.7776C22.0569 12.9327 22.0556 13.0003 22.0524 13.0822C22.0486 13.417 22.0209 13.7331 21.9691 14.0457C21.9212 14.3264 21.8314 14.6013 21.7028 14.8587C21.5759 15.1056 21.4073 15.3373 21.2063 15.5391C21.0064 15.7401 20.7761 15.9076 20.5238 16.0358C20.2684 16.1656 19.9949 16.2559 19.7125 16.3037C19.4009 16.3549 19.0832 16.3837 18.7647 16.3894C18.6993 16.3906 18.6476 16.3913 18.5304 16.3924C18.4092 16.3936 18.3547 16.3943 18.2851 16.3957L10.8892 16.3956C10.8335 16.3943 10.7796 16.3936 10.6595 16.3924C10.5436 16.3913 10.4925 16.3906 10.4297 16.3894C10.1113 16.3848 9.79721 16.357 9.48641 16.3062C9.21129 16.2578 8.93723 16.1676 8.68025 16.0397C8.43911 15.9148 8.21038 15.7473 8.01124 15.5479L7.96209 15.4964C7.91325 15.4453 7.8921 15.4235 7.86779 15.4019C7.7424 15.2808 7.68531 15.2252 7.61759 15.1574L5.12196 12.6618L5.10921 12.6502C5.09377 12.6361 5.08346 12.6268 5.07586 12.6201C5.03076 12.5767 4.99388 12.5395 4.959 12.5024C4.88695 12.4326 4.84747 12.3936 4.7569 12.303L2.80293 10.3459L2.61689 10.1598C2.57826 10.1212 2.54718 10.0887 2.47596 10.013C2.32096 9.86003 2.1909 9.71687 2.06924 9.5667L2.03118 9.52386C1.99945 9.49127 1.97311 9.4539 1.95309 9.41317C1.90467 9.24535 1.90485 9.0672 1.95364 8.89946C1.97251 8.86037 1.99771 8.8246 2.02827 8.79362L2.07117 8.74542C2.19083 8.59623 2.31955 8.45455 2.4566 8.32117C2.54718 8.22581 2.57826 8.1933 2.61689 8.15467C2.71514 8.05641 2.75903 8.01197 2.81383 7.95429L4.7569 6.01151L4.94572 5.82269C4.98331 5.7851 4.99944 5.76904 5.01986 5.74892L5.06162 5.71138C5.09176 5.68436 5.1085 5.66935 5.12511 5.65274L7.29691 3.47779L7.61759 3.15711C7.68531 3.08939 7.7424 3.03374 7.86779 2.91264C7.8921 2.89104 7.91325 2.86925 7.96047 2.81981L8.01097 2.76688C8.21038 2.56723 8.43911 2.39978 8.68934 2.27019C8.93724 2.14695 9.21129 2.05676 9.49398 2.00703C9.79539 1.95879 10.1095 1.93197 10.4243 1.92839C10.5623 1.92313 10.6616 1.92214 10.8892 1.92214C11.0522 1.91951 11.176 1.91899 11.4526 1.91899H17.775ZM11.8141 12.4876C11.7629 12.538 11.7017 12.5791 11.6327 12.6076C11.4208 12.6952 11.1769 12.6462 11.0151 12.4837C10.795 12.2627 10.795 11.9054 11.0151 11.6844C11.0487 11.6506 11.0858 11.6218 11.1254 11.5981L13.5653 9.15557L11.0151 6.60812L11.0228 6.60042C10.9728 6.54947 10.9321 6.48864 10.9038 6.42011C10.8162 6.20813 10.8652 5.96429 11.0277 5.80247C11.2487 5.58242 11.606 5.58242 11.827 5.80247C11.8592 5.8345 11.8869 5.86975 11.91 5.90733L14.3633 8.35668L16.833 5.88431C16.8525 5.8555 16.8748 5.82808 16.9001 5.80247C17.0613 5.64057 17.3042 5.59183 17.5154 5.67902C17.7265 5.76621 17.8643 5.97212 17.8643 6.20058C17.8643 6.35235 17.8035 6.49418 17.7008 6.59785L17.7079 6.60498L15.1617 9.15382L17.6446 11.6327C17.667 11.6491 17.6886 11.6674 17.7089 11.6875C17.8708 11.8487 17.9196 12.0916 17.8324 12.3027C17.7452 12.5139 17.5393 12.6517 17.3108 12.6517C17.1585 12.6517 17.0163 12.5904 16.9125 12.4871L16.9064 12.4931L14.3635 9.95293L11.8228 12.4963L11.8141 12.4876Z" fill="#D9D9D9"/>
</svg>
