<svg width="15" height="25" viewBox="0 0 15 25" fill="none" xmlns="http://www.w3.org/2000/svg">
<path fill-rule="evenodd" clip-rule="evenodd" d="M0.833339 10.3318C1.29358 10.3318 1.66668 10.7049 1.66668 11.1652C1.66668 11.193 1.66532 11.2204 1.66267 11.2474V13.5421H1.65834V13.5487C1.65834 13.5644 1.65943 13.58 1.66052 13.5957L1.66052 13.5957C1.66151 13.61 1.66251 13.6244 1.66267 13.6388V13.9521H1.67834C1.92604 16.9161 4.35142 19.2263 7.32367 19.3293H7.66034C10.6335 19.228 13.0603 16.9171 13.307 13.9521H13.327V11.1752L13.3334 11.1751L13.3333 11.1652C13.3333 10.7049 13.7064 10.3318 14.1667 10.3318C14.6269 10.3318 15 10.7049 15 11.1652C15 11.1892 14.999 11.213 14.997 11.2365V13.2821H14.987H14.9867C14.9893 17.1107 12.128 20.3361 8.32667 20.7895V23.3231H11.4667V23.3338C11.4777 23.3334 11.4888 23.3331 11.5 23.3331C11.9602 23.3331 12.3333 23.7063 12.3333 24.1666C12.3333 24.6269 11.9602 25 11.5 25C11.4888 25 11.4777 24.9998 11.4667 24.9993V25H3.53V24.9995C3.52004 24.9998 3.51005 25 3.5 25C3.03977 25 2.66667 24.6269 2.66667 24.1666C2.66667 23.7063 3.03977 23.3331 3.5 23.3331C3.51005 23.3331 3.52004 23.3333 3.53 23.3337V23.3231H6.67667V20.7895C2.86727 20.3467 -0.00463201 17.1175 5.60867e-06 13.2821C5.60867e-06 13.2621 0.00168159 13.2432 0.00331786 13.2246C0.00469032 13.2091 0.00603483 13.1939 0.00633894 13.1787V11.2685C0.0021585 11.2346 5.60867e-06 11.2002 5.60867e-06 11.1652C5.60867e-06 10.7049 0.373102 10.3318 0.833339 10.3318ZM11.9933 11.8786C11.9933 12.382 11.9933 12.9121 11.9667 13.4155C11.9462 13.8694 11.8769 14.3198 11.76 14.7589C11.4991 15.6806 10.9429 16.4911 10.1767 17.0658C8.60513 18.3059 6.38821 18.3059 4.81667 17.0658C4.04849 16.4929 3.49153 15.6817 3.23267 14.7589C3.11523 14.32 3.04604 13.8695 3.02634 13.4155C2.99734 12.9121 3 12.382 3 11.8786V7.66486C3 7.16481 3.00267 4.95458 3 4.58121C3.01318 4.12453 3.09176 3.6721 3.23334 3.23773C3.76698 1.32384 5.5103 0 7.497 0C9.48371 0 11.227 1.32384 11.7607 3.23773C11.886 3.67599 11.9642 4.12636 11.994 4.58121C12.024 5.08459 11.994 7.16481 11.994 7.66486V11.8786H11.9933ZM10.3267 12.6654C10.3267 12.9855 10.32 13.0921 10.3 13.4122C10.2885 13.7028 10.2449 13.9912 10.17 14.2723C10.0104 14.8623 9.66282 15.3843 9.18 15.7591C8.19073 16.5281 6.80595 16.5281 5.81667 15.7591C5.33198 15.3854 4.98308 14.8631 4.82334 14.2723C4.75005 13.9909 4.70648 13.7026 4.69334 13.4122C4.67667 13.0921 4.67334 12.9855 4.67334 12.6654C4.67334 8.23158 4.65334 4.94457 4.68 4.5912C4.69929 4.30048 4.7473 4.01238 4.82334 3.73112C4.98308 3.14026 5.33198 2.61801 5.81667 2.2443C6.80595 1.47532 8.19073 1.47532 9.18 2.2443C9.66282 2.61911 10.0104 3.14107 10.17 3.73112C10.2547 4.01108 10.3083 4.29951 10.33 4.5912C10.3533 4.97124 10.3267 8.21825 10.3267 12.6654Z" fill="#D9D9D9"/>
</svg>
