<svg width="20" height="20" viewBox="0 0 20 20" fill="none" xmlns="http://www.w3.org/2000/svg">
<g clip-path="url(#clip0_89_824)">
<path d="M10 20C15.5228 20 20 15.5228 20 10C20 4.47715 15.5228 0 10 0C4.47715 0 0 4.47715 0 10C0 15.5228 4.47715 20 10 20Z" fill="#3577E5"/>
<path d="M10.9333 15.9331V10.5331H12.7333L13 8.39974H10.9333V7.06641C10.9333 6.46641 11.1333 6.06641 12 6.06641H13.1333V4.13307C12.9333 4.13307 12.2667 4.06641 11.5333 4.06641C9.93333 4.06641 8.8 5.06641 8.8 6.86641V8.39974H7V10.5331H8.8V15.9331H10.9333Z" fill="white"/>
</g>
<defs>
<clipPath id="clip0_89_824">
<rect width="20" height="20" fill="white"/>
</clipPath>
</defs>
</svg>
