<svg width="375" height="40" viewBox="0 0 375 40" fill="none" xmlns="http://www.w3.org/2000/svg">
<path d="M42.9093 28.6268C43.346 28.9797 44.054 28.9797 44.4906 28.6268C44.9273 28.2739 44.9273 27.7019 44.4906 27.349L42.9093 28.6268ZM33.9792 20.1325L34.7699 19.4936L33.9792 20.1325ZM33.9792 16.759L34.7699 17.398L33.9792 16.759ZM44.4906 9.54256C44.9273 9.18968 44.9273 8.61754 44.4906 8.26466C44.054 7.91178 43.346 7.91178 42.9093 8.26466L44.4906 9.54256ZM44.4906 27.349L34.7699 19.4936L33.1885 20.7715L42.9093 28.6268L44.4906 27.349ZM34.7699 19.4936C34.0585 18.9187 34.0585 17.9728 34.7699 17.398L33.1885 16.1201C31.6038 17.4007 31.6038 19.4909 33.1885 20.7715L34.7699 19.4936ZM34.7699 17.398L44.4906 9.54256L42.9093 8.26466L33.1885 16.1201L34.7699 17.398Z" fill="#101623"/>
</svg>
