<svg width="375" height="40" viewBox="0 0 375 40" fill="none" xmlns="http://www.w3.org/2000/svg">
<path d="M42.9093 28.6269C43.3459 28.9798 44.0539 28.9798 44.4906 28.6269C44.9273 28.274 44.9273 27.7019 44.4906 27.3491L42.9093 28.6269ZM33.9792 20.1325L34.7699 19.4936L33.9792 20.1325ZM33.9792 16.759L34.7699 17.398L33.9792 16.759ZM44.4906 9.54257C44.9273 9.18968 44.9273 8.61755 44.4906 8.26466C44.0539 7.91178 43.3459 7.91178 42.9093 8.26466L44.4906 9.54257ZM44.4906 27.3491L34.7699 19.4936L33.1885 20.7715L42.9093 28.6269L44.4906 27.3491ZM34.7699 19.4936C34.0585 18.9188 34.0585 17.9728 34.7699 17.398L33.1885 16.1201C31.6038 17.4007 31.6038 19.4909 33.1885 20.7715L34.7699 19.4936ZM34.7699 17.398L44.4906 9.54257L42.9093 8.26466L33.1885 16.1201L34.7699 17.398Z" fill="#101623"/>
<circle cx="349" cy="15" r="2" fill="#101623"/>
<circle cx="349" cy="21" r="2" fill="#101623"/>
<circle cx="349" cy="27" r="2" fill="#101623"/>
</svg>
