<svg width="43" height="43" viewBox="0 0 43 43" fill="none" xmlns="http://www.w3.org/2000/svg">
<circle cx="21.5" cy="21.5" r="21.5" fill="#EDF5FC"/>
<path fill-rule="evenodd" clip-rule="evenodd" d="M24.6963 23.1629C24.1443 23.1629 23.6923 22.7159 23.6923 22.1629C23.6923 21.6099 24.1353 21.1629 24.6873 21.1629H24.6963C25.2483 21.1629 25.6963 21.6099 25.6963 22.1629C25.6963 22.7159 25.2483 23.1629 24.6963 23.1629Z" fill="#227DDE"/>
<path fill-rule="evenodd" clip-rule="evenodd" d="M20.6875 23.1629C20.1355 23.1629 19.6835 22.7159 19.6835 22.1629C19.6835 21.6099 20.1255 21.1629 20.6785 21.1629H20.6875C21.2395 21.1629 21.6875 21.6099 21.6875 22.1629C21.6875 22.7159 21.2395 23.1629 20.6875 23.1629Z" fill="#227DDE"/>
<path fill-rule="evenodd" clip-rule="evenodd" d="M16.6783 23.1629C16.1263 23.1629 15.6743 22.7159 15.6743 22.1629C15.6743 21.6099 16.1173 21.1629 16.6693 21.1629H16.6783C17.2303 21.1629 17.6783 21.6099 17.6783 22.1629C17.6783 22.7159 17.2303 23.1629 16.6783 23.1629Z" fill="#227DDE"/>
</svg>
