<svg width="103" height="103" viewBox="0 0 103 103" fill="none" xmlns="http://www.w3.org/2000/svg">
<circle cx="51.5" cy="51.5" r="51.5" fill="#FFEBEB"/>
<path d="M34.0833 35.0833H48.5833C49.9125 35.0833 51 33.9958 51 32.6667C51 31.3375 49.9125 30.25 48.5833 30.25H34.0833C31.425 30.25 29.25 32.425 29.25 35.0833V68.9167C29.25 71.575 31.425 73.75 34.0833 73.75H48.5833C49.9125 73.75 51 72.6625 51 71.3333C51 70.0042 49.9125 68.9167 48.5833 68.9167H34.0833V35.0833Z" fill="#FF5C5C"/>
<path d="M71.9042 51.1537L65.1617 44.4112C64.9936 44.2385 64.7778 44.1199 64.542 44.0706C64.3061 44.0212 64.0609 44.0434 63.8377 44.1342C63.6145 44.2251 63.4235 44.3804 63.2891 44.5804C63.1547 44.7805 63.0831 45.016 63.0833 45.257V49.5828H46.1667C44.8375 49.5828 43.75 50.6703 43.75 51.9995C43.75 53.3287 44.8375 54.4161 46.1667 54.4161H63.0833V58.742C63.0833 59.8295 64.3883 60.3611 65.1375 59.5878L71.88 52.8453C72.3633 52.3862 72.3633 51.6128 71.9042 51.1537Z" fill="#FF5C5C"/>
</svg>
