<svg width="36" height="36" viewBox="0 0 36 36" fill="none" xmlns="http://www.w3.org/2000/svg">
<circle cx="18" cy="18" r="18" fill="#EDF5FC"/>
<path d="M17.626 11.6907C18.0041 11.6907 18.3106 11.3842 18.3106 11.0061C18.3106 10.6279 18.0041 10.3214 17.626 10.3214V11.6907ZM25.9848 18.2676C25.9848 17.8895 25.6783 17.5829 25.3002 17.5829C24.9221 17.5829 24.6156 17.8895 24.6156 18.2676H25.9848ZM17.626 10.3214H14.782V11.6907H17.626V10.3214ZM14.782 10.3214C13.4429 10.3214 12.3031 10.8001 11.5013 11.6604C10.7045 12.5154 10.2919 13.6925 10.2919 15.0069H11.661C11.661 13.9767 11.9816 13.1534 12.5029 12.5941C13.0191 12.0401 13.782 11.6907 14.782 11.6907V10.3214ZM10.2919 15.0069V21.3319H11.661V15.0069H10.2919ZM10.2919 21.3319C10.2919 22.6456 10.7023 23.8229 11.4984 24.6782C12.2997 25.5391 13.4399 26.0175 14.782 26.0175V24.6481C13.7782 24.6481 13.0156 24.2985 12.5006 23.7452C11.9804 23.1863 11.661 22.363 11.661 21.3319H10.2919ZM14.782 26.0175H21.4939V24.6481H14.782V26.0175ZM21.4939 26.0175C22.8362 26.0175 23.9767 25.5392 24.7781 24.6783C25.5743 23.8229 25.9848 22.6456 25.9848 21.3319H24.6156C24.6156 22.363 24.2962 23.1862 23.7759 23.7452C23.2609 24.2985 22.4981 24.6481 21.4939 24.6481V26.0175ZM25.9848 21.3319V18.2676H24.6156V21.3319H25.9848Z" fill="#227DDE"/>
<path d="M15.5993 17.1926L16.0834 17.6767L15.5993 17.1926ZM21.2836 11.5073L20.7998 11.0229L20.7996 11.0232L21.2836 11.5073ZM23.8478 11.5073L24.3319 11.0232L24.3316 11.0229L23.8478 11.5073ZM24.7735 14.9977L24.2897 14.5133L24.2894 14.5136L24.7735 14.9977ZM19.0618 20.7104L19.5459 21.1945L19.0618 20.7104ZM15.0448 21.1942L14.3604 21.1771C14.3559 21.3616 14.4259 21.5402 14.5548 21.6723C14.6836 21.8044 14.8603 21.8789 15.0448 21.8789V21.1942ZM15.1163 18.3185L14.4319 18.3013L14.4319 18.3015L15.1163 18.3185ZM16.0834 17.6767L21.7677 11.9915L20.7996 11.0232L15.1153 16.7084L16.0834 17.6767ZM21.7674 11.9917C22.2083 11.5513 22.9231 11.5513 23.364 11.9917L24.3316 11.0229C23.3561 10.0484 21.7753 10.0484 20.7998 11.0229L21.7674 11.9917ZM23.3637 11.9915L24.2894 12.9173L25.2576 11.949L24.3319 11.0232L23.3637 11.9915ZM24.2894 12.9173C24.7304 13.3584 24.73 14.0734 24.2897 14.5133L25.2573 15.4822C26.2333 14.507 26.2329 12.9246 25.2576 11.949L24.2894 12.9173ZM24.2894 14.5136L18.5777 20.2262L19.5459 21.1945L25.2576 15.4819L24.2894 14.5136ZM18.5777 20.2262C18.3964 20.4076 18.1506 20.5095 17.8942 20.5095V21.8789C18.5141 21.8789 19.108 21.6324 19.5459 21.1945L18.5777 20.2262ZM17.8942 20.5095H15.0448V21.8789H17.8942V20.5095ZM15.7292 21.2112L15.8007 18.3355L14.4319 18.3015L14.3604 21.1771L15.7292 21.2112ZM15.8007 18.3357C15.8069 18.0882 15.908 17.8522 16.0834 17.6767L15.1153 16.7084C14.6913 17.1324 14.447 17.7029 14.4319 18.3013L15.8007 18.3357Z" fill="#227DDE"/>
<path d="M20.9039 11.9015C20.6365 11.6342 20.2031 11.6342 19.9357 11.9015C19.6684 12.1689 19.6684 12.6025 19.9357 12.8698L20.9039 11.9015ZM23.4089 16.3435C23.6762 16.6109 24.1097 16.6109 24.377 16.3435C24.6443 16.0761 24.6443 15.6426 24.377 15.3752L23.4089 16.3435ZM19.9357 12.8698L23.4089 16.3435L24.377 15.3752L20.9039 11.9015L19.9357 12.8698Z" fill="#227DDE"/>
</svg>
