<svg width="43" height="43" viewBox="0 0 43 43" fill="none" xmlns="http://www.w3.org/2000/svg">
<circle cx="21.5" cy="21.5" r="21.5" fill="#EDF5FC"/>
<path fill-rule="evenodd" clip-rule="evenodd" d="M24.7158 25.9736H17.4958C17.0818 25.9736 16.7458 25.6376 16.7458 25.2236C16.7458 24.8096 17.0818 24.4736 17.4958 24.4736H24.7158C25.1298 24.4736 25.4658 24.8096 25.4658 25.2236C25.4658 25.6376 25.1298 25.9736 24.7158 25.9736Z" fill="#227DDE"/>
<path fill-rule="evenodd" clip-rule="evenodd" d="M24.7157 21.7873H17.4957C17.0817 21.7873 16.7457 21.4513 16.7457 21.0373C16.7457 20.6233 17.0817 20.2873 17.4957 20.2873H24.7157C25.1297 20.2873 25.4657 20.6233 25.4657 21.0373C25.4657 21.4513 25.1297 21.7873 24.7157 21.7873Z" fill="#227DDE"/>
<path fill-rule="evenodd" clip-rule="evenodd" d="M20.2505 17.6103H17.4955C17.0815 17.6103 16.7455 17.2743 16.7455 16.8603C16.7455 16.4463 17.0815 16.1103 17.4955 16.1103H20.2505C20.6645 16.1103 21.0005 16.4463 21.0005 16.8603C21.0005 17.2743 20.6645 17.6103 20.2505 17.6103Z" fill="#227DDE"/>
</svg>
