<svg width="43" height="43" viewBox="0 0 43 43" fill="none" xmlns="http://www.w3.org/2000/svg">
<circle cx="21.5" cy="21.5" r="21.5" fill="#FFEBEB"/>
<path d="M14 15H20C20.55 15 21 14.55 21 14C21 13.45 20.55 13 20 13H14C12.9 13 12 13.9 12 15V29C12 30.1 12.9 31 14 31H20C20.55 31 21 30.55 21 30C21 29.45 20.55 29 20 29H14V15Z" fill="#FF5C5C"/>
<path d="M29.65 21.6498L26.86 18.8598C26.7905 18.7883 26.7012 18.7393 26.6036 18.7189C26.506 18.6985 26.4045 18.7076 26.3122 18.7452C26.2198 18.7828 26.1407 18.8471 26.0851 18.9298C26.0295 19.0126 25.9999 19.1101 26 19.2098V20.9998H19C18.45 20.9998 18 21.4498 18 21.9998C18 22.5498 18.45 22.9998 19 22.9998H26V24.7898C26 25.2398 26.54 25.4598 26.85 25.1398L29.64 22.3498C29.84 22.1598 29.84 21.8398 29.65 21.6498Z" fill="#FF5C5C"/>
</svg>
