<svg width="36" height="36" viewBox="0 0 36 36" fill="none" xmlns="http://www.w3.org/2000/svg">
<circle cx="18" cy="18" r="18" fill="#EDF5FC"/>
<path d="M17.6261 11.6907C18.0042 11.6907 18.3107 11.3842 18.3107 11.0061C18.3107 10.6279 18.0042 10.3214 17.6261 10.3214V11.6907ZM25.9849 18.2676C25.9849 17.8895 25.6784 17.5829 25.3003 17.5829C24.9222 17.5829 24.6157 17.8895 24.6157 18.2676H25.9849ZM17.6261 10.3214H14.7821V11.6907H17.6261V10.3214ZM14.7821 10.3214C13.443 10.3214 12.3032 10.8001 11.5014 11.6604C10.7047 12.5154 10.292 13.6925 10.292 15.0069H11.6612C11.6612 13.9767 11.9817 13.1534 12.503 12.5941C13.0193 12.0401 13.7822 11.6907 14.7821 11.6907V10.3214ZM10.292 15.0069V21.3319H11.6612V15.0069H10.292ZM10.292 21.3319C10.292 22.6456 10.7025 23.8229 11.4986 24.6782C12.2998 25.5391 13.44 26.0175 14.7821 26.0175V24.6481C13.7783 24.6481 13.0158 24.2985 12.5007 23.7452C11.9805 23.1863 11.6612 22.363 11.6612 21.3319H10.292ZM14.7821 26.0175H21.494V24.6481H14.7821V26.0175ZM21.494 26.0175C22.8364 26.0175 23.9768 25.5392 24.7782 24.6783C25.5744 23.8229 25.9849 22.6456 25.9849 21.3319H24.6157C24.6157 22.363 24.2963 23.1862 23.7761 23.7452C23.261 24.2985 22.4983 24.6481 21.494 24.6481V26.0175ZM25.9849 21.3319V18.2676H24.6157V21.3319H25.9849Z" fill="#227DDE"/>
<path d="M15.5994 17.1926L16.0835 17.6767L15.5994 17.1926ZM21.2838 11.5073L20.7999 11.0229L20.7997 11.0232L21.2838 11.5073ZM23.8479 11.5073L24.332 11.0232L24.3317 11.0229L23.8479 11.5073ZM24.7736 14.9977L24.2898 14.5133L24.2895 14.5136L24.7736 14.9977ZM19.0619 20.7104L19.546 21.1945L19.0619 20.7104ZM15.0449 21.1942L14.3606 21.1771C14.356 21.3616 14.426 21.5402 14.5549 21.6723C14.6837 21.8044 14.8604 21.8789 15.0449 21.8789V21.1942ZM15.1164 18.3185L14.4321 18.3013L14.4321 18.3015L15.1164 18.3185ZM16.0835 17.6767L21.7678 11.9915L20.7997 11.0232L15.1154 16.7084L16.0835 17.6767ZM21.7676 11.9917C22.2084 11.5513 22.9232 11.5513 23.3641 11.9917L24.3317 11.0229C23.3563 10.0484 21.7754 10.0484 20.7999 11.0229L21.7676 11.9917ZM23.3638 11.9915L24.2895 12.9173L25.2577 11.949L24.332 11.0232L23.3638 11.9915ZM24.2895 12.9173C24.7305 13.3584 24.7301 14.0734 24.2898 14.5133L25.2574 15.4822C26.2334 14.507 26.233 12.9246 25.2577 11.949L24.2895 12.9173ZM24.2895 14.5136L18.5778 20.2262L19.546 21.1945L25.2577 15.4819L24.2895 14.5136ZM18.5778 20.2262C18.3965 20.4076 18.1507 20.5095 17.8943 20.5095V21.8789C18.5142 21.8789 19.1082 21.6324 19.546 21.1945L18.5778 20.2262ZM17.8943 20.5095H15.0449V21.8789H17.8943V20.5095ZM15.7293 21.2112L15.8008 18.3355L14.4321 18.3015L14.3606 21.1771L15.7293 21.2112ZM15.8008 18.3357C15.807 18.0882 15.9081 17.8522 16.0835 17.6767L15.1154 16.7084C14.6914 17.1324 14.4471 17.7029 14.4321 18.3013L15.8008 18.3357Z" fill="#227DDE"/>
<path d="M20.904 11.9015C20.6367 11.6342 20.2032 11.6342 19.9359 11.9015C19.6685 12.1689 19.6685 12.6025 19.9359 12.8698L20.904 11.9015ZM23.409 16.3435C23.6763 16.6109 24.1098 16.6109 24.3771 16.3435C24.6445 16.0761 24.6445 15.6426 24.3771 15.3752L23.409 16.3435ZM19.9359 12.8698L23.409 16.3435L24.3771 15.3752L20.904 11.9015L19.9359 12.8698Z" fill="#227DDE"/>
</svg>
