<svg width="43" height="43" viewBox="0 0 43 43" fill="none" xmlns="http://www.w3.org/2000/svg">
<circle cx="21.5" cy="21.5" r="21.5" fill="#FFEBEB"/>
<path d="M19 33C19.5523 33 20 32.5523 20 32C20 31.4477 19.5523 31 19 31V33ZM13 30H12H13ZM15 14V13V14ZM19 15C19.5523 15 20 14.5523 20 14C20 13.4477 19.5523 13 19 13V15ZM19 31H15V33H19V31ZM15 31C14.7348 31 14.4804 30.8946 14.2929 30.7071L12.8787 32.1213C13.4413 32.6839 14.2043 33 15 33V31ZM14.2929 30.7071C14.1054 30.5196 14 30.2652 14 30H12C12 30.7957 12.3161 31.5587 12.8787 32.1213L14.2929 30.7071ZM14 30V16H12V30H14ZM14 16C14 15.7348 14.1054 15.4804 14.2929 15.2929L12.8787 13.8787C12.3161 14.4413 12 15.2043 12 16H14ZM14.2929 15.2929C14.4804 15.1054 14.7348 15 15 15V13C14.2043 13 13.4413 13.3161 12.8787 13.8787L14.2929 15.2929ZM15 15H19V13H15V15Z" fill="#FF5C5C"/>
<path d="M25.2929 27.2929C24.9024 27.6834 24.9024 28.3166 25.2929 28.7071C25.6834 29.0976 26.3166 29.0976 26.7071 28.7071L25.2929 27.2929ZM31 23L31.7071 23.7071C32.0976 23.3166 32.0976 22.6834 31.7071 22.2929L31 23ZM26.7071 17.2929C26.3166 16.9024 25.6834 16.9024 25.2929 17.2929C24.9024 17.6834 24.9024 18.3166 25.2929 18.7071L26.7071 17.2929ZM26.7071 28.7071L31.7071 23.7071L30.2929 22.2929L25.2929 27.2929L26.7071 28.7071ZM31.7071 22.2929L26.7071 17.2929L25.2929 18.7071L30.2929 23.7071L31.7071 22.2929Z" fill="#FF5C5C"/>
<path d="M31 24C31.5523 24 32 23.5523 32 23C32 22.4477 31.5523 22 31 22V24ZM19 22C18.4477 22 18 22.4477 18 23C18 23.5523 18.4477 24 19 24V22ZM31 22H19V24H31V22Z" fill="#FF5C5C"/>
</svg>
