<svg width="32" height="32" viewBox="0 0 32 32" fill="none" xmlns="http://www.w3.org/2000/svg">
<path d="M23.8644 4.57142C22.6015 4.56914 21.3557 4.87735 20.2258 5.47155C19.096 6.06575 18.1133 6.92954 17.3559 7.9942C16.3303 6.55641 14.9014 5.49484 13.2715 4.95971C11.6417 4.42459 9.89339 4.443 8.27402 5.01234C6.65465 5.58169 5.24622 6.67314 4.24803 8.13226C3.24984 9.59137 2.71243 11.3442 2.71185 13.1429C2.72049 14.5062 2.94645 15.8584 3.38029 17.1428H9.18219L11.0297 14.2232C11.1287 14.0667 11.2629 13.9383 11.4204 13.8495C11.5778 13.7607 11.7536 13.7143 11.9322 13.7143C12.1108 13.7143 12.2866 13.7607 12.444 13.8495C12.6015 13.9383 12.7357 14.0667 12.8347 14.2232L16.2712 19.6539L17.5382 17.6518C17.6372 17.4952 17.7714 17.3668 17.9288 17.278C18.0863 17.1894 18.2621 17.1428 18.4407 17.1428H21.6949C21.9826 17.1428 22.2585 17.2633 22.4619 17.4776C22.6653 17.6919 22.7796 17.9826 22.7796 18.2857C22.7796 18.5888 22.6653 18.8795 22.4619 19.0938C22.2585 19.3082 21.9826 19.4286 21.6949 19.4286H19.0212L17.1737 22.3482C17.0746 22.5048 16.9405 22.6331 16.7831 22.7219C16.6256 22.8107 16.4497 22.8571 16.2712 22.8571C16.0926 22.8571 15.9168 22.8107 15.7593 22.7219C15.6019 22.6331 15.4677 22.5048 15.3687 22.3482L11.9322 16.9175L10.6652 18.9196C10.5662 19.0762 10.432 19.2046 10.2745 19.2934C10.1171 19.3822 9.94128 19.4286 9.7627 19.4286H4.33679C7.95047 26.5443 16.3739 31.5876 16.8259 31.8543C16.9878 31.9498 17.1703 32 17.3559 32C17.5415 32 17.7241 31.9498 17.8859 31.8543C20.3759 30.3179 22.7126 28.5215 24.8612 26.4923C29.5981 22.0007 32 17.5092 32 13.1429C31.9975 10.8704 31.1396 8.69167 29.6144 7.08478C28.0893 5.47789 26.0213 4.574 23.8644 4.57142Z" fill="white"/>
</svg>
