<svg width="16" height="16" viewBox="0 0 16 16" fill="none" xmlns="http://www.w3.org/2000/svg">
<path d="M3.78917 7.55341C3.53238 7.30677 3.11606 7.30677 2.85927 7.55341C2.60249 7.80006 2.60249 8.19996 2.85927 8.4466L3.78917 7.55341ZM6.83107 11.3684L6.36612 11.815C6.49675 11.9405 6.67631 12.0074 6.86087 11.9994C7.04541 11.9913 7.21793 11.9091 7.3362 11.7727L6.83107 11.3684ZM13.1809 5.03592C13.4134 4.76796 13.3757 4.36971 13.0968 4.1464C12.8178 3.9231 12.4032 3.9593 12.1707 4.22727L13.1809 5.03592ZM2.85927 8.4466L6.36612 11.815L7.29601 10.9218L3.78917 7.55341L2.85927 8.4466ZM7.3362 11.7727L13.1809 5.03592L12.1707 4.22727L6.32593 10.9641L7.3362 11.7727Z" fill="#13B97D"/>
</svg>
