<svg width="24" height="24" viewBox="0 0 24 24" fill="none" xmlns="http://www.w3.org/2000/svg">
<path d="M14.4873 8.96754L15.0658 9.54608C15.3854 9.22657 15.3854 8.70852 15.0658 8.389L14.4873 8.96754ZM8.9673 14.4875L8.38876 15.0661C8.70828 15.3856 9.22632 15.3856 9.54584 15.0661L8.9673 14.4875ZM13.9088 8.389L8.38876 13.909L9.54584 15.0661L15.0658 9.54608L13.9088 8.389ZM9.54584 13.909C8.98318 13.3463 8.64003 12.5808 8.64003 11.7275H7.00366C7.00366 13.0342 7.53323 14.2106 8.38876 15.0661L9.54584 13.909ZM8.64003 11.7275C8.64003 10.0194 10.0192 8.64027 11.7273 8.64027V7.00391C9.11543 7.00391 7.00366 9.11568 7.00366 11.7275H8.64003ZM11.7273 8.64027C12.5806 8.64027 13.3461 8.98343 13.9088 9.54608L15.0658 8.389C14.2103 7.53347 13.034 7.00391 11.7273 7.00391V8.64027Z" fill="#A1A8B0"/>
<path d="M17.5838 5.58454C17.9444 5.85664 18.4575 5.78478 18.7297 5.42403C19.0017 5.06328 18.9299 4.55024 18.5691 4.27813L17.5838 5.58454ZM1.78916 8.90224L2.47883 9.34246L2.47951 9.34138L1.78916 8.90224ZM1.78916 14.5641L2.47921 14.1244L2.47883 14.1239L1.78916 14.5641ZM4.21204 18.6425C4.55464 18.9372 5.07123 18.8984 5.36586 18.5557C5.6605 18.2132 5.62162 17.6965 5.27902 17.402L4.21204 18.6425ZM18.5691 4.27813C16.5333 2.74254 14.1815 1.8877 11.7273 1.8877V3.52406C13.7896 3.52406 15.8013 4.24012 17.5838 5.58454L18.5691 4.27813ZM11.7273 1.8877C7.52936 1.8877 3.7071 4.36275 1.09882 8.46311L2.47951 9.34138C4.86759 5.58719 8.22351 3.52406 11.7273 3.52406V1.8877ZM1.0995 8.46203C0.504502 9.3942 0.234619 10.5885 0.234619 11.7331C0.234619 12.8778 0.504502 14.0721 1.0995 15.0042L2.47883 14.1239C2.09201 13.5178 1.87098 12.6503 1.87098 11.7331C1.87098 10.816 2.09201 9.94847 2.47883 9.34246L1.0995 8.46203ZM1.09913 15.0037C2.00047 16.4185 3.05559 17.6481 4.21204 18.6425L5.27902 17.402C4.25365 16.5201 3.3015 15.4151 2.47921 14.1244L1.09913 15.0037Z" fill="#A1A8B0"/>
<path d="M8.13956 19.1875C7.7231 19.0121 7.24334 19.2075 7.06799 19.6241C6.89264 20.0405 7.0881 20.5202 7.50455 20.6955L8.13956 19.1875ZM21.6657 14.5524L20.976 14.1122L20.9754 14.1133L21.6657 14.5524ZM21.6657 8.8906L20.9749 9.329L20.976 9.33081L21.6657 8.8906ZM21.1469 6.77416C20.8637 6.42206 20.3486 6.36621 19.9965 6.64942C19.6445 6.93264 19.5886 7.44766 19.8718 7.79976L21.1469 6.77416ZM7.50455 20.6955C8.84187 21.2587 10.2695 21.567 11.7275 21.567V19.9306C10.5019 19.9306 9.28951 19.6716 8.13956 19.1875L7.50455 20.6955ZM11.7275 21.567C15.9255 21.567 19.7478 19.0919 22.356 14.9915L20.9754 14.1133C18.5873 17.8675 15.2313 19.9306 11.7275 19.9306V21.567ZM22.3554 14.9926C22.9503 14.0605 23.2202 12.8661 23.2202 11.7215C23.2202 10.5769 22.9503 9.38255 22.3554 8.45038L20.976 9.33081C21.3629 9.93682 21.5839 10.8043 21.5839 11.7215C21.5839 12.6387 21.3629 13.5062 20.976 14.1122L22.3554 14.9926ZM22.3565 8.45219C21.977 7.85429 21.5657 7.29481 21.1469 6.77416L19.8718 7.79976C20.2603 8.28274 20.6343 8.79236 20.9749 9.329L22.3565 8.45219Z" fill="#A1A8B0"/>
<path d="M16.3612 12.6395C16.4431 12.1952 16.1493 11.7685 15.7049 11.6866C15.2605 11.6046 14.8339 11.8984 14.7519 12.3428L16.3612 12.6395ZM12.3318 14.7629C11.8874 14.8449 11.5936 15.2715 11.6756 15.7159C11.7575 16.1603 12.1842 16.4541 12.6286 16.3722L12.3318 14.7629ZM14.7519 12.3428C14.5298 13.5473 13.5363 14.5408 12.3318 14.7629L12.6286 16.3722C14.5004 16.027 16.016 14.5114 16.3612 12.6395L14.7519 12.3428Z" fill="#A1A8B0"/>
<path d="M9.54581 15.0657C9.86533 14.7461 9.86533 14.2281 9.54581 13.9086C9.2263 13.5891 8.70825 13.5891 8.38873 13.9086L9.54581 15.0657ZM0.23964 22.0577C-0.0798799 22.3772 -0.0798799 22.8952 0.23964 23.2148C0.559159 23.5343 1.0772 23.5343 1.39672 23.2148L0.23964 22.0577ZM8.38873 13.9086L0.23964 22.0577L1.39672 23.2148L9.54581 15.0657L8.38873 13.9086Z" fill="#A1A8B0"/>
<path d="M23.2149 1.39672C23.5344 1.0772 23.5344 0.559159 23.2149 0.23964C22.8954 -0.0798799 22.3773 -0.0798799 22.0578 0.23964L23.2149 1.39672ZM13.9087 8.38873C13.5892 8.70825 13.5892 9.2263 13.9087 9.54581C14.2282 9.86533 14.7463 9.86533 15.0658 9.54581L13.9087 8.38873ZM22.0578 0.23964L13.9087 8.38873L15.0658 9.54581L23.2149 1.39672L22.0578 0.23964Z" fill="#A1A8B0"/>
</svg>
