<svg width="24" height="24" viewBox="0 0 24 24" fill="none" xmlns="http://www.w3.org/2000/svg">
<path d="M18.1276 22.3638H7.91482V24.0002H18.1276V22.3638ZM7.91482 22.3638C6.50032 22.3638 5.43858 21.9859 4.73389 21.287C4.03946 20.5982 3.5744 19.4805 3.5744 17.7275H2.04248C2.04248 19.7925 2.59868 21.4022 3.6915 22.4861C4.77404 23.5599 6.26549 24.0002 7.91482 24.0002V22.3638ZM3.5744 17.7275V10.0911H2.04248V17.7275H3.5744ZM3.5744 10.0911C3.5744 8.33794 4.03946 7.22034 4.73389 6.53156C5.43858 5.83258 6.50032 5.45472 7.91482 5.45472V3.81836C6.26549 3.81836 4.77404 4.25869 3.6915 5.33244C2.59868 6.41638 2.04248 8.02605 2.04248 10.0911H3.5744ZM7.91482 5.45472H18.1276V3.81836H7.91482V5.45472ZM18.1276 5.45472C19.5421 5.45472 20.6038 5.83258 21.3086 6.53156C22.0029 7.22034 22.468 8.33794 22.468 10.0911H23.9999C23.9999 8.02605 23.4437 6.41638 22.3509 5.33244C21.2684 4.25869 19.7769 3.81836 18.1276 3.81836V5.45472ZM22.468 10.0911V17.7275H23.9999V10.0911H22.468ZM22.468 17.7275C22.468 19.4805 22.0029 20.5982 21.3086 21.287C20.6038 21.9859 19.5421 22.3638 18.1276 22.3638V24.0002C19.7769 24.0002 21.2684 23.5599 22.3509 22.4861C23.4437 21.4022 23.9999 19.7925 23.9999 17.7275H22.468Z" fill="#227DDE"/>
<path d="M18.6057 11.2759C18.9362 10.9939 18.9901 10.479 18.7261 10.126C18.4621 9.77289 17.9802 9.71527 17.6497 9.99728L18.6057 11.2759ZM14.9311 13.3638L15.4082 14.0039L15.4091 14.0031L14.9311 13.3638ZM11.1013 13.3638L10.6223 14.0023L10.6242 14.0039L11.1013 13.3638ZM8.39387 9.99808C8.06375 9.71552 7.58169 9.77233 7.31717 10.125C7.05265 10.4776 7.10583 10.9925 7.43595 11.2751L8.39387 9.99808ZM17.6497 9.99728L14.4531 12.7245L15.4091 14.0031L18.6057 11.2759L17.6497 9.99728ZM14.454 12.7237C13.6813 13.3809 12.3511 13.3809 11.5784 12.7237L10.6242 14.0039C11.9553 15.1359 14.077 15.1359 15.4082 14.0039L14.454 12.7237ZM11.5802 12.7253L8.39387 9.99808L7.43595 11.2751L10.6223 14.0023L11.5802 12.7253Z" fill="#227DDE"/>
</svg>
