<svg width="24" height="24" viewBox="0 0 24 24" fill="none" xmlns="http://www.w3.org/2000/svg">
<path d="M6.12766 10.9787C6.12766 11.4017 6.47059 11.7447 6.89362 11.7447C7.31665 11.7447 7.65958 11.4017 7.65958 10.9787H6.12766ZM18.383 10.9787C18.383 11.4017 18.7259 11.7447 19.1489 11.7447C19.572 11.7447 19.9149 11.4017 19.9149 10.9787H18.383ZM7.65958 10.9787V8.93616H6.12766V10.9787H7.65958ZM7.65958 8.93616C7.65958 7.29177 7.91521 5.98377 8.63905 5.08517C9.33408 4.22234 10.5992 3.57446 13.0213 3.57446V2.04254C10.337 2.04254 8.53826 2.76828 7.44605 4.12417C6.38267 5.44429 6.12766 7.20012 6.12766 8.93616H7.65958ZM13.0213 3.57446C15.4434 3.57446 16.7085 4.22234 17.4035 5.08517C18.1274 5.98377 18.383 7.29177 18.383 8.93616H19.9149C19.9149 7.20012 19.6599 5.44429 18.5965 4.12417C17.5043 2.76828 15.7056 2.04254 13.0213 2.04254V3.57446ZM18.383 8.93616V10.9787H19.9149V8.93616H18.383Z" fill="#A1A8B0"/>
<path d="M18.1277 22.4681H7.9149V24H18.1277V22.4681ZM7.9149 22.4681C5.86687 22.4681 4.89378 22.1936 4.3714 21.6712C3.84903 21.1488 3.57447 20.1757 3.57447 18.1277H2.04256C2.04256 20.1647 2.27864 21.7448 3.28818 22.7544C4.29772 23.7639 5.87782 24 7.9149 24V22.4681ZM3.57447 18.1277V16.0851H2.04256V18.1277H3.57447ZM3.57447 16.0851C3.57447 14.0371 3.84903 13.064 4.3714 12.5416C4.89378 12.0192 5.86687 11.7447 7.9149 11.7447V10.2128C5.87782 10.2128 4.29772 10.4489 3.28818 11.4584C2.27864 12.4679 2.04256 14.048 2.04256 16.0851H3.57447ZM7.9149 11.7447H18.1277V10.2128H7.9149V11.7447ZM18.1277 11.7447C20.1757 11.7447 21.1488 12.0192 21.6712 12.5416C22.1936 13.064 22.4681 14.0371 22.4681 16.0851H24C24 14.048 23.7639 12.4679 22.7544 11.4584C21.7448 10.4489 20.1647 10.2128 18.1277 10.2128V11.7447ZM22.4681 16.0851V18.1277H24V16.0851H22.4681ZM22.4681 18.1277C22.4681 20.1757 22.1936 21.1488 21.6712 21.6712C21.1488 22.1936 20.1757 22.4681 18.1277 22.4681V24C20.1647 24 21.7448 23.7639 22.7544 22.7544C23.7639 21.7448 24 20.1647 24 18.1277H22.4681Z" fill="#A1A8B0"/>
<path d="M16.8531 15.8298C16.289 15.8298 15.8318 16.287 15.8318 16.851C15.8318 17.4151 16.289 17.8723 16.8531 17.8723V15.8298ZM16.8622 17.8723C17.4263 17.8723 17.8835 17.4151 17.8835 16.851C17.8835 16.287 17.4263 15.8298 16.8622 15.8298V17.8723ZM16.8531 17.8723H16.8622V15.8298H16.8531V17.8723Z" fill="#A1A8B0"/>
<path d="M12.767 15.8298C12.2029 15.8298 11.7457 16.287 11.7457 16.851C11.7457 17.4151 12.2029 17.8723 12.767 17.8723V15.8298ZM12.7761 17.8723C13.3402 17.8723 13.7974 17.4151 13.7974 16.851C13.7974 16.287 13.3402 15.8298 12.7761 15.8298V17.8723ZM12.767 17.8723H12.7761V15.8298H12.767V17.8723Z" fill="#A1A8B0"/>
<path d="M8.68085 15.8298C8.11682 15.8298 7.65958 16.287 7.65958 16.851C7.65958 17.4151 8.11682 17.8723 8.68085 17.8723V15.8298ZM8.69003 17.8723C9.25406 17.8723 9.7113 17.4151 9.7113 16.851C9.7113 16.287 9.25406 15.8298 8.69003 15.8298V17.8723ZM8.68085 17.8723H8.69003V15.8298H8.68085V17.8723Z" fill="#A1A8B0"/>
</svg>
