<svg width="16" height="16" viewBox="0 0 16 16" fill="none" xmlns="http://www.w3.org/2000/svg">
<path d="M3.78917 7.55341C3.53239 7.30677 3.11606 7.30677 2.85927 7.55341C2.60249 7.80006 2.60249 8.19996 2.85927 8.4466L3.78917 7.55341ZM6.83108 11.3684L6.36613 11.815C6.49676 11.9405 6.67632 12.0074 6.86088 11.9994C7.04542 11.9913 7.21794 11.9091 7.33621 11.7727L6.83108 11.3684ZM13.1809 5.03592C13.4134 4.76796 13.3757 4.36971 13.0968 4.1464C12.8178 3.9231 12.4032 3.9593 12.1707 4.22727L13.1809 5.03592ZM2.85927 8.4466L6.36613 11.815L7.29602 10.9218L3.78917 7.55341L2.85927 8.4466ZM7.33621 11.7727L13.1809 5.03592L12.1707 4.22727L6.32594 10.9641L7.33621 11.7727Z" fill="#13B97D"/>
</svg>
