<svg width="24" height="24" viewBox="0 0 24 24" fill="none" xmlns="http://www.w3.org/2000/svg">
<path d="M6.12769 10.9791C6.12769 11.4022 6.47062 11.7451 6.89364 11.7451C7.31667 11.7451 7.6596 11.4022 7.6596 10.9791H6.12769ZM18.383 10.9791C18.383 11.4022 18.7259 11.7451 19.149 11.7451C19.572 11.7451 19.9149 11.4022 19.9149 10.9791H18.383ZM7.6596 10.9791V8.93659H6.12769V10.9791H7.6596ZM7.6596 8.93659C7.6596 7.2922 7.91524 5.9842 8.63908 5.0856C9.33411 4.22277 10.5992 3.57488 13.0213 3.57488V2.04297C10.337 2.04297 8.53829 2.7687 7.44608 4.1246C6.38269 5.44472 6.12769 7.20055 6.12769 8.93659H7.6596ZM13.0213 3.57488C15.4434 3.57488 16.7085 4.22277 17.4035 5.0856C18.1274 5.9842 18.383 7.2922 18.383 8.93659H19.9149C19.9149 7.20055 19.6599 5.44472 18.5966 4.1246C17.5043 2.7687 15.7056 2.04297 13.0213 2.04297V3.57488ZM18.383 8.93659V10.9791H19.9149V8.93659H18.383Z" fill="#A1A8B0"/>
<path d="M18.1277 22.4682H7.91494V24.0001H18.1277V22.4682ZM7.91494 22.4682C5.86692 22.4682 4.89382 22.1937 4.37145 21.6713C3.84908 21.1489 3.57452 20.1758 3.57452 18.1278H2.0426C2.0426 20.1649 2.27868 21.7449 3.28822 22.7545C4.29777 23.764 5.87786 24.0001 7.91494 24.0001V22.4682ZM3.57452 18.1278V16.0852H2.0426V18.1278H3.57452ZM3.57452 16.0852C3.57452 14.0372 3.84908 13.0641 4.37145 12.5417C4.89382 12.0194 5.86692 11.7448 7.91494 11.7448V10.2129C5.87786 10.2129 4.29777 10.449 3.28822 11.4585C2.27868 12.4681 2.0426 14.0482 2.0426 16.0852H3.57452ZM7.91494 11.7448H18.1277V10.2129H7.91494V11.7448ZM18.1277 11.7448C20.1758 11.7448 21.1488 12.0194 21.6712 12.5417C22.1936 13.0641 22.4681 14.0372 22.4681 16.0852H24C24 14.0482 23.7639 12.4681 22.7544 11.4585C21.7449 10.449 20.1647 10.2129 18.1277 10.2129V11.7448ZM22.4681 16.0852V18.1278H24V16.0852H22.4681ZM22.4681 18.1278C22.4681 20.1758 22.1936 21.1489 21.6712 21.6713C21.1488 22.1937 20.1758 22.4682 18.1277 22.4682V24.0001C20.1647 24.0001 21.7449 23.764 22.7544 22.7545C23.7639 21.7449 24 20.1649 24 18.1278H22.4681Z" fill="#A1A8B0"/>
<path d="M16.8531 15.8301C16.289 15.8301 15.8318 16.2873 15.8318 16.8514C15.8318 17.4154 16.289 17.8726 16.8531 17.8726V15.8301ZM16.8622 17.8726C17.4263 17.8726 17.8835 17.4154 17.8835 16.8514C17.8835 16.2873 17.4263 15.8301 16.8622 15.8301V17.8726ZM16.8531 17.8726H16.8622V15.8301H16.8531V17.8726Z" fill="#A1A8B0"/>
<path d="M12.767 15.8301C12.203 15.8301 11.7457 16.2873 11.7457 16.8514C11.7457 17.4154 12.203 17.8726 12.767 17.8726V15.8301ZM12.7762 17.8726C13.3402 17.8726 13.7975 17.4154 13.7975 16.8514C13.7975 16.2873 13.3402 15.8301 12.7762 15.8301V17.8726ZM12.767 17.8726H12.7762V15.8301H12.767V17.8726Z" fill="#A1A8B0"/>
<path d="M8.68082 15.8301C8.11679 15.8301 7.65955 16.2873 7.65955 16.8514C7.65955 17.4154 8.11679 17.8726 8.68082 17.8726V15.8301ZM8.69 17.8726C9.25403 17.8726 9.71127 17.4154 9.71127 16.8514C9.71127 16.2873 9.25403 15.8301 8.69 15.8301V17.8726ZM8.68082 17.8726H8.69V15.8301H8.68082V17.8726Z" fill="#A1A8B0"/>
</svg>
