<svg width="24" height="24" viewBox="0 0 24 24" fill="none" xmlns="http://www.w3.org/2000/svg">
<path d="M18.4699 7.91531C18.4699 10.3125 16.4025 12.2557 13.8524 12.2557V13.7876C17.3026 13.7876 20.0995 11.1585 20.0995 7.91531H18.4699ZM13.8524 12.2557C11.3022 12.2557 9.23492 10.3125 9.23492 7.91531H7.60522C7.60522 11.1585 10.4022 13.7876 13.8524 13.7876V12.2557ZM9.23492 7.91531C9.23492 5.51816 11.3022 3.57488 13.8524 3.57488V2.04297C10.4022 2.04297 7.60522 4.6721 7.60522 7.91531H9.23492ZM13.8524 3.57488C16.4025 3.57488 18.4699 5.51816 18.4699 7.91531H20.0995C20.0995 4.6721 17.3026 2.04297 13.8524 2.04297V3.57488Z" fill="#A1A8B0"/>
<path d="M22.3703 23.2342C22.3703 23.6573 22.7351 24.0002 23.1851 24.0002C23.6352 24.0002 24 23.6573 24 23.2342H22.3703ZM3.70486 23.2342C3.70486 23.6573 4.06968 24.0002 4.51971 24.0002C4.96974 24.0002 5.33456 23.6573 5.33456 23.2342H3.70486ZM24 23.2342C24 18.7193 19.2879 15.3193 13.8524 15.3193V16.8513C18.7166 16.8513 22.3703 19.8445 22.3703 23.2342H24ZM13.8524 15.3193C8.41698 15.3193 3.70486 18.7193 3.70486 23.2342H5.33456C5.33456 19.8445 8.98819 16.8513 13.8524 16.8513V15.3193Z" fill="#A1A8B0"/>
</svg>
