<svg width="16" height="16" viewBox="0 0 16 16" fill="none" xmlns="http://www.w3.org/2000/svg">
<path d="M3.78915 7.55341C3.53237 7.30677 3.11604 7.30677 2.85925 7.55341C2.60247 7.80006 2.60247 8.19996 2.85925 8.4466L3.78915 7.55341ZM6.83105 11.3684L6.3661 11.815C6.49673 11.9405 6.67629 12.0074 6.86085 11.9994C7.0454 11.9913 7.21791 11.9091 7.33618 11.7727L6.83105 11.3684ZM13.1809 5.03592C13.4134 4.76796 13.3757 4.36971 13.0967 4.1464C12.8178 3.9231 12.4032 3.9593 12.1707 4.22727L13.1809 5.03592ZM2.85925 8.4466L6.3661 11.815L7.29599 10.9218L3.78915 7.55341L2.85925 8.4466ZM7.33618 11.7727L13.1809 5.03592L12.1707 4.22727L6.32591 10.9641L7.33618 11.7727Z" fill="#13B97D"/>
</svg>
