<svg width="24" height="24" viewBox="0 0 24 24" fill="none" xmlns="http://www.w3.org/2000/svg">
<path d="M14.4873 8.96718L15.0658 9.54572C15.3854 9.2262 15.3854 8.70815 15.0658 8.38863L14.4873 8.96718ZM8.9673 14.4872L8.38876 15.0657C8.70828 15.3852 9.22632 15.3852 9.54584 15.0657L8.9673 14.4872ZM13.9088 8.38863L8.38876 13.9086L9.54584 15.0657L15.0658 9.54572L13.9088 8.38863ZM9.54584 13.9086C8.98318 13.346 8.64003 12.5805 8.64003 11.7272H7.00366C7.00366 13.0339 7.53323 14.2102 8.38876 15.0657L9.54584 13.9086ZM8.64003 11.7272C8.64003 10.019 10.0192 8.6399 11.7273 8.6399V7.00354C9.11543 7.00354 7.00366 9.11531 7.00366 11.7272H8.64003ZM11.7273 8.6399C12.5806 8.6399 13.3461 8.98306 13.9088 9.54572L15.0658 8.38863C14.2103 7.53311 13.034 7.00354 11.7273 7.00354V8.6399Z" fill="#A1A8B0"/>
<path d="M17.5837 5.58405C17.9444 5.85615 18.4574 5.78429 18.7296 5.42354C19.0017 5.06279 18.9298 4.54976 18.569 4.27764L17.5837 5.58405ZM1.7891 8.90175L2.47877 9.34197L2.47945 9.34089L1.7891 8.90175ZM1.7891 14.5636L2.47915 14.1239L2.47877 14.1234L1.7891 14.5636ZM4.21198 18.642C4.55458 18.9367 5.07117 18.8979 5.3658 18.5552C5.66043 18.2127 5.62155 17.696 5.27895 17.4015L4.21198 18.642ZM18.569 4.27764C16.5333 2.74205 14.1814 1.88721 11.7273 1.88721V3.52357C13.7895 3.52357 15.8013 4.23963 17.5837 5.58405L18.569 4.27764ZM11.7273 1.88721C7.5293 1.88721 3.70704 4.36226 1.09876 8.46262L2.47945 9.34089C4.86753 5.5867 8.22345 3.52357 11.7273 3.52357V1.88721ZM1.09944 8.46154C0.504441 9.39371 0.234558 10.588 0.234558 11.7327C0.234558 12.8773 0.504441 14.0716 1.09944 15.0038L2.47877 14.1234C2.09195 13.5173 1.87092 12.6499 1.87092 11.7327C1.87092 10.8155 2.09195 9.94798 2.47877 9.34197L1.09944 8.46154ZM1.09906 15.0032C2.00041 16.418 3.05553 17.6476 4.21198 18.642L5.27895 17.4015C4.25359 16.5196 3.30144 15.4146 2.47915 14.1239L1.09906 15.0032Z" fill="#A1A8B0"/>
<path d="M8.13956 19.1877C7.7231 19.0123 7.24334 19.2078 7.06799 19.6243C6.89264 20.0407 7.0881 20.5205 7.50455 20.6958L8.13956 19.1877ZM21.6657 14.5527L20.976 14.1124L20.9754 14.1135L21.6657 14.5527ZM21.6657 8.89084L20.9749 9.32924L20.976 9.33106L21.6657 8.89084ZM21.1469 6.7744C20.8637 6.4223 20.3486 6.36645 19.9965 6.64967C19.6445 6.93288 19.5886 7.4479 19.8718 7.80001L21.1469 6.7744ZM7.50455 20.6958C8.84187 21.2589 10.2695 21.5672 11.7275 21.5672V19.9308C10.5019 19.9308 9.28951 19.6719 8.13956 19.1877L7.50455 20.6958ZM11.7275 21.5672C15.9255 21.5672 19.7478 19.0922 22.356 14.9918L20.9754 14.1135C18.5873 17.8677 15.2313 19.9308 11.7275 19.9308V21.5672ZM22.3554 14.9929C22.9503 14.0607 23.2202 12.8664 23.2202 11.7218C23.2202 10.5771 22.9503 9.3828 22.3554 8.45063L20.976 9.33106C21.3629 9.93707 21.5839 10.8046 21.5839 11.7218C21.5839 12.6389 21.3629 13.5064 20.976 14.1124L22.3554 14.9929ZM22.3565 8.45244C21.977 7.85453 21.5657 7.29506 21.1469 6.7744L19.8718 7.80001C20.2603 8.28299 20.6343 8.7926 20.9749 9.32924L22.3565 8.45244Z" fill="#A1A8B0"/>
<path d="M16.3611 12.6394C16.4431 12.195 16.1492 11.7684 15.7049 11.6864C15.2605 11.6045 14.8338 11.8983 14.7519 12.3427L16.3611 12.6394ZM12.3318 14.7628C11.8874 14.8447 11.5936 15.2714 11.6755 15.7158C11.7575 16.1602 12.1841 16.454 12.6285 16.372L12.3318 14.7628ZM14.7519 12.3427C14.5298 13.5472 13.5363 14.5407 12.3318 14.7628L12.6285 16.372C14.5003 16.0269 16.016 14.5113 16.3611 12.6394L14.7519 12.3427Z" fill="#A1A8B0"/>
<path d="M9.54581 15.0658C9.86533 14.7463 9.86533 14.2282 9.54581 13.9087C9.2263 13.5892 8.70825 13.5892 8.38873 13.9087L9.54581 15.0658ZM0.23964 22.0578C-0.0798799 22.3773 -0.0798799 22.8954 0.23964 23.2149C0.559159 23.5344 1.0772 23.5344 1.39672 23.2149L0.23964 22.0578ZM8.38873 13.9087L0.23964 22.0578L1.39672 23.2149L9.54581 15.0658L8.38873 13.9087Z" fill="#A1A8B0"/>
<path d="M23.2149 1.39672C23.5344 1.0772 23.5344 0.559159 23.2149 0.23964C22.8954 -0.0798799 22.3773 -0.0798799 22.0578 0.23964L23.2149 1.39672ZM13.9087 8.38873C13.5892 8.70825 13.5892 9.2263 13.9087 9.54581C14.2282 9.86533 14.7463 9.86533 15.0658 9.54581L13.9087 8.38873ZM22.0578 0.23964L13.9087 8.38873L15.0658 9.54581L23.2149 1.39672L22.0578 0.23964Z" fill="#A1A8B0"/>
</svg>
