<svg width="24" height="24" viewBox="0 0 24 24" fill="none" xmlns="http://www.w3.org/2000/svg">
<path d="M14.4873 8.9673L15.0658 9.54584C15.3853 9.22632 15.3853 8.70828 15.0658 8.38876L14.4873 8.9673ZM8.96729 14.4873L8.38875 15.0658C8.70827 15.3854 9.22632 15.3854 9.54583 15.0658L8.96729 14.4873ZM13.9087 8.38876L8.38875 13.9088L9.54583 15.0658L15.0658 9.54584L13.9087 8.38876ZM9.54583 13.9088C8.98317 13.3461 8.64002 12.5806 8.64002 11.7273H7.00365C7.00365 13.034 7.53322 14.2103 8.38875 15.0658L9.54583 13.9088ZM8.64002 11.7273C8.64002 10.0192 10.0192 8.64003 11.7273 8.64003V7.00366C9.11543 7.00366 7.00365 9.11543 7.00365 11.7273H8.64002ZM11.7273 8.64003C12.5806 8.64003 13.3461 8.98318 13.9087 9.54584L15.0658 8.38876C14.2103 7.53323 13.034 7.00366 11.7273 7.00366V8.64003Z" fill="#A1A8B0"/>
<path d="M17.5837 5.58405C17.9444 5.85615 18.4574 5.78429 18.7296 5.42354C19.0017 5.06279 18.9298 4.54976 18.569 4.27764L17.5837 5.58405ZM1.78909 8.90175L2.47875 9.34197L2.47944 9.34089L1.78909 8.90175ZM1.78909 14.5636L2.47913 14.1239L2.47875 14.1234L1.78909 14.5636ZM4.21196 18.642C4.55456 18.9367 5.07115 18.8979 5.36579 18.5552C5.66042 18.2127 5.62154 17.696 5.27894 17.4015L4.21196 18.642ZM18.569 4.27764C16.5333 2.74205 14.1814 1.88721 11.7273 1.88721V3.52357C13.7895 3.52357 15.8013 4.23963 17.5837 5.58405L18.569 4.27764ZM11.7273 1.88721C7.52929 1.88721 3.70703 4.36226 1.09874 8.46262L2.47944 9.34089C4.86751 5.5867 8.22343 3.52357 11.7273 3.52357V1.88721ZM1.09942 8.46154C0.504426 9.39371 0.234543 10.588 0.234543 11.7327C0.234543 12.8773 0.504426 14.0716 1.09942 15.0038L2.47875 14.1234C2.09193 13.5173 1.87091 12.6499 1.87091 11.7327C1.87091 10.8155 2.09193 9.94798 2.47875 9.34197L1.09942 8.46154ZM1.09905 15.0032C2.00039 16.418 3.05551 17.6476 4.21196 18.642L5.27894 17.4015C4.25357 16.5196 3.30143 15.4146 2.47913 14.1239L1.09905 15.0032Z" fill="#A1A8B0"/>
<path d="M8.13955 19.188C7.72309 19.0125 7.24333 19.208 7.06798 19.6245C6.89263 20.0409 7.08809 20.5207 7.50455 20.696L8.13955 19.188ZM21.6657 14.5529L20.976 14.1127L20.9754 14.1138L21.6657 14.5529ZM21.6657 8.89109L20.9749 9.32949L20.976 9.3313L21.6657 8.89109ZM21.1468 6.77465C20.8636 6.42254 20.3486 6.3667 19.9965 6.64991C19.6444 6.93312 19.5886 7.44815 19.8718 7.80025L21.1468 6.77465ZM7.50455 20.696C8.84186 21.2592 10.2695 21.5674 11.7275 21.5674V19.9311C10.5019 19.9311 9.28951 19.6721 8.13955 19.188L7.50455 20.696ZM11.7275 21.5674C15.9255 21.5674 19.7478 19.0924 22.356 14.992L20.9754 14.1138C18.5873 17.868 15.2313 19.9311 11.7275 19.9311V21.5674ZM22.3554 14.9931C22.9503 14.0609 23.2202 12.8666 23.2202 11.722C23.2202 10.5774 22.9503 9.38304 22.3554 8.45087L20.976 9.3313C21.3628 9.93731 21.5839 10.8048 21.5839 11.722C21.5839 12.6392 21.3628 13.5067 20.976 14.1127L22.3554 14.9931ZM22.3564 8.45268C21.977 7.85478 21.5656 7.2953 21.1468 6.77465L19.8718 7.80025C20.2603 8.28323 20.6343 8.79285 20.9749 9.32949L22.3564 8.45268Z" fill="#A1A8B0"/>
<path d="M16.3611 12.6393C16.4431 12.1949 16.1493 11.7683 15.7049 11.6863C15.2605 11.6044 14.8338 11.8982 14.7519 12.3426L16.3611 12.6393ZM12.3318 14.7627C11.8874 14.8446 11.5936 15.2713 11.6755 15.7157C11.7575 16.16 12.1841 16.4539 12.6285 16.3719L12.3318 14.7627ZM14.7519 12.3426C14.5298 13.5471 13.5363 14.5406 12.3318 14.7627L12.6285 16.3719C14.5004 16.0268 16.016 14.5111 16.3611 12.6393L14.7519 12.3426Z" fill="#A1A8B0"/>
<path d="M9.54581 15.0659C9.86533 14.7464 9.86533 14.2283 9.54581 13.9088C9.2263 13.5893 8.70825 13.5893 8.38873 13.9088L9.54581 15.0659ZM0.23964 22.0579C-0.0798799 22.3774 -0.0798799 22.8955 0.23964 23.215C0.559159 23.5345 1.0772 23.5345 1.39672 23.215L0.23964 22.0579ZM8.38873 13.9088L0.23964 22.0579L1.39672 23.215L9.54581 15.0659L8.38873 13.9088Z" fill="#A1A8B0"/>
<path d="M23.2149 1.39672C23.5344 1.0772 23.5344 0.559159 23.2149 0.23964C22.8954 -0.0798799 22.3773 -0.0798799 22.0578 0.23964L23.2149 1.39672ZM13.9087 8.38873C13.5892 8.70825 13.5892 9.2263 13.9087 9.54581C14.2282 9.86533 14.7463 9.86533 15.0658 9.54581L13.9087 8.38873ZM22.0578 0.23964L13.9087 8.38873L15.0658 9.54581L23.2149 1.39672L22.0578 0.23964Z" fill="#A1A8B0"/>
</svg>
