<svg width="24" height="24" viewBox="0 0 24 24" fill="none" xmlns="http://www.w3.org/2000/svg">
<path d="M6.12766 10.9788C6.12766 11.4018 6.47059 11.7447 6.89361 11.7447C7.31664 11.7447 7.65957 11.4018 7.65957 10.9788H6.12766ZM18.383 10.9788C18.383 11.4018 18.7259 11.7447 19.1489 11.7447C19.5719 11.7447 19.9149 11.4018 19.9149 10.9788H18.383ZM7.65957 10.9788V8.93622H6.12766V10.9788H7.65957ZM7.65957 8.93622C7.65957 7.29183 7.91521 5.98383 8.63905 5.08523C9.33408 4.2224 10.5992 3.57452 13.0213 3.57452V2.0426C10.337 2.0426 8.53826 2.76834 7.44605 4.12423C6.38266 5.44435 6.12766 7.20018 6.12766 8.93622H7.65957ZM13.0213 3.57452C15.4434 3.57452 16.7085 4.2224 17.4035 5.08523C18.1273 5.98383 18.383 7.29183 18.383 8.93622H19.9149C19.9149 7.20018 19.6599 5.44435 18.5965 4.12423C17.5043 2.76834 15.7056 2.0426 13.0213 2.0426V3.57452ZM18.383 8.93622V10.9788H19.9149V8.93622H18.383Z" fill="#227DDE"/>
<path d="M18.1276 22.4681H7.91488V24H18.1276V22.4681ZM7.91488 22.4681C5.86685 22.4681 4.89376 22.1936 4.37139 21.6712C3.84902 21.1488 3.57446 20.1757 3.57446 18.1277H2.04254C2.04254 20.1647 2.27862 21.7448 3.28816 22.7544C4.2977 23.7639 5.8778 24 7.91488 24V22.4681ZM3.57446 18.1277V16.0851H2.04254V18.1277H3.57446ZM3.57446 16.0851C3.57446 14.0371 3.84902 13.064 4.37139 12.5416C4.89376 12.0192 5.86685 11.7447 7.91488 11.7447V10.2128C5.8778 10.2128 4.2977 10.4489 3.28816 11.4584C2.27862 12.4679 2.04254 14.048 2.04254 16.0851H3.57446ZM7.91488 11.7447H18.1276V10.2128H7.91488V11.7447ZM18.1276 11.7447C20.1757 11.7447 21.1488 12.0192 21.6712 12.5416C22.1936 13.064 22.4681 14.0371 22.4681 16.0851H24C24 14.048 23.7639 12.4679 22.7543 11.4584C21.7448 10.4489 20.1647 10.2128 18.1276 10.2128V11.7447ZM22.4681 16.0851V18.1277H24V16.0851H22.4681ZM22.4681 18.1277C22.4681 20.1757 22.1936 21.1488 21.6712 21.6712C21.1488 22.1936 20.1757 22.4681 18.1276 22.4681V24C20.1647 24 21.7448 23.7639 22.7543 22.7544C23.7639 21.7448 24 20.1647 24 18.1277H22.4681Z" fill="#227DDE"/>
<path d="M16.8531 15.8298C16.289 15.8298 15.8318 16.2871 15.8318 16.8511C15.8318 17.4151 16.289 17.8724 16.8531 17.8724V15.8298ZM16.8622 17.8724C17.4263 17.8724 17.8835 17.4151 17.8835 16.8511C17.8835 16.2871 17.4263 15.8298 16.8622 15.8298V17.8724ZM16.8531 17.8724H16.8622V15.8298H16.8531V17.8724Z" fill="#227DDE"/>
<path d="M12.7669 15.8298C12.2029 15.8298 11.7457 16.2871 11.7457 16.8511C11.7457 17.4151 12.2029 17.8724 12.7669 17.8724V15.8298ZM12.7761 17.8724C13.3401 17.8724 13.7974 17.4151 13.7974 16.8511C13.7974 16.2871 13.3401 15.8298 12.7761 15.8298V17.8724ZM12.7669 17.8724H12.7761V15.8298H12.7669V17.8724Z" fill="#227DDE"/>
<path d="M8.68085 15.8298C8.11682 15.8298 7.65958 16.2871 7.65958 16.8511C7.65958 17.4151 8.11682 17.8724 8.68085 17.8724V15.8298ZM8.69003 17.8724C9.25406 17.8724 9.7113 17.4151 9.7113 16.8511C9.7113 16.2871 9.25406 15.8298 8.69003 15.8298V17.8724ZM8.68085 17.8724H8.69003V15.8298H8.68085V17.8724Z" fill="#227DDE"/>
</svg>
