<svg width="24" height="24" viewBox="0 0 24 24" fill="none" xmlns="http://www.w3.org/2000/svg">
<path d="M6.12766 10.9787C6.12766 11.4017 6.47059 11.7446 6.89361 11.7446C7.31664 11.7446 7.65957 11.4017 7.65957 10.9787H6.12766ZM18.383 10.9787C18.383 11.4017 18.7259 11.7446 19.1489 11.7446C19.5719 11.7446 19.9149 11.4017 19.9149 10.9787H18.383ZM7.65957 10.9787V8.9361H6.12766V10.9787H7.65957ZM7.65957 8.9361C7.65957 7.29171 7.91521 5.98371 8.63905 5.08511C9.33408 4.22228 10.5992 3.5744 13.0213 3.5744V2.04248C10.337 2.04248 8.53826 2.76821 7.44605 4.12411C6.38266 5.44423 6.12766 7.20006 6.12766 8.9361H7.65957ZM13.0213 3.5744C15.4434 3.5744 16.7085 4.22228 17.4035 5.08511C18.1273 5.98371 18.383 7.29171 18.383 8.9361H19.9149C19.9149 7.20006 19.6599 5.44423 18.5965 4.12411C17.5043 2.76821 15.7056 2.04248 13.0213 2.04248V3.5744ZM18.383 8.9361V10.9787H19.9149V8.9361H18.383Z" fill="#A1A8B0"/>
<path d="M18.1277 22.468H7.9149V23.9999H18.1277V22.468ZM7.9149 22.468C5.86687 22.468 4.89378 22.1934 4.3714 21.6711C3.84903 21.1487 3.57447 20.1756 3.57447 18.1275H2.04256C2.04256 20.1646 2.27864 21.7447 3.28818 22.7542C4.29772 23.7638 5.87782 23.9999 7.9149 23.9999V22.468ZM3.57447 18.1275V16.085H2.04256V18.1275H3.57447ZM3.57447 16.085C3.57447 14.037 3.84903 13.0639 4.3714 12.5415C4.89378 12.0191 5.86687 11.7446 7.9149 11.7446V10.2126C5.87782 10.2126 4.29772 10.4487 3.28818 11.4583C2.27864 12.4678 2.04256 14.0479 2.04256 16.085H3.57447ZM7.9149 11.7446H18.1277V10.2126H7.9149V11.7446ZM18.1277 11.7446C20.1757 11.7446 21.1488 12.0191 21.6712 12.5415C22.1936 13.0639 22.4681 14.037 22.4681 16.085H24C24 14.0479 23.7639 12.4678 22.7544 11.4583C21.7448 10.4487 20.1647 10.2126 18.1277 10.2126V11.7446ZM22.4681 16.085V18.1275H24V16.085H22.4681ZM22.4681 18.1275C22.4681 20.1756 22.1936 21.1487 21.6712 21.6711C21.1488 22.1934 20.1757 22.468 18.1277 22.468V23.9999C20.1647 23.9999 21.7448 23.7638 22.7544 22.7542C23.7639 21.7447 24 20.1646 24 18.1275H22.4681Z" fill="#A1A8B0"/>
<path d="M16.8531 15.8298C16.289 15.8298 15.8318 16.2871 15.8318 16.8511C15.8318 17.4151 16.289 17.8724 16.8531 17.8724V15.8298ZM16.8622 17.8724C17.4263 17.8724 17.8835 17.4151 17.8835 16.8511C17.8835 16.2871 17.4263 15.8298 16.8622 15.8298V17.8724ZM16.8531 17.8724H16.8622V15.8298H16.8531V17.8724Z" fill="#A1A8B0"/>
<path d="M12.767 15.8298C12.2029 15.8298 11.7457 16.2871 11.7457 16.8511C11.7457 17.4151 12.2029 17.8724 12.767 17.8724V15.8298ZM12.7761 17.8724C13.3402 17.8724 13.7974 17.4151 13.7974 16.8511C13.7974 16.2871 13.3402 15.8298 12.7761 15.8298V17.8724ZM12.767 17.8724H12.7761V15.8298H12.767V17.8724Z" fill="#A1A8B0"/>
<path d="M8.68085 15.8298C8.11682 15.8298 7.65958 16.2871 7.65958 16.8511C7.65958 17.4151 8.11682 17.8724 8.68085 17.8724V15.8298ZM8.69003 17.8724C9.25406 17.8724 9.7113 17.4151 9.7113 16.8511C9.7113 16.2871 9.25406 15.8298 8.69003 15.8298V17.8724ZM8.68085 17.8724H8.69003V15.8298H8.68085V17.8724Z" fill="#A1A8B0"/>
</svg>
