<svg width="24" height="24" viewBox="0 0 24 24" fill="none" xmlns="http://www.w3.org/2000/svg">
<path d="M6.12769 10.9787C6.12769 11.4017 6.47062 11.7446 6.89364 11.7446C7.31667 11.7446 7.6596 11.4017 7.6596 10.9787H6.12769ZM18.383 10.9787C18.383 11.4017 18.7259 11.7446 19.149 11.7446C19.572 11.7446 19.9149 11.4017 19.9149 10.9787H18.383ZM7.6596 10.9787V8.9361H6.12769V10.9787H7.6596ZM7.6596 8.9361C7.6596 7.29171 7.91524 5.98371 8.63908 5.08511C9.33411 4.22228 10.5992 3.5744 13.0213 3.5744V2.04248C10.337 2.04248 8.53829 2.76821 7.44608 4.12411C6.38269 5.44423 6.12769 7.20006 6.12769 8.9361H7.6596ZM13.0213 3.5744C15.4434 3.5744 16.7085 4.22228 17.4035 5.08511C18.1274 5.98371 18.383 7.29171 18.383 8.9361H19.9149C19.9149 7.20006 19.6599 5.44423 18.5966 4.12411C17.5043 2.76821 15.7056 2.04248 13.0213 2.04248V3.5744ZM18.383 8.9361V10.9787H19.9149V8.9361H18.383Z" fill="#227DDE"/>
<path d="M18.1277 22.468H7.91494V23.9999H18.1277V22.468ZM7.91494 22.468C5.86692 22.468 4.89382 22.1934 4.37145 21.6711C3.84908 21.1487 3.57452 20.1756 3.57452 18.1275H2.0426C2.0426 20.1646 2.27868 21.7447 3.28822 22.7542C4.29777 23.7638 5.87786 23.9999 7.91494 23.9999V22.468ZM3.57452 18.1275V16.085H2.0426V18.1275H3.57452ZM3.57452 16.085C3.57452 14.037 3.84908 13.0639 4.37145 12.5415C4.89382 12.0191 5.86692 11.7446 7.91494 11.7446V10.2126C5.87786 10.2126 4.29777 10.4487 3.28822 11.4583C2.27868 12.4678 2.0426 14.0479 2.0426 16.085H3.57452ZM7.91494 11.7446H18.1277V10.2126H7.91494V11.7446ZM18.1277 11.7446C20.1758 11.7446 21.1488 12.0191 21.6712 12.5415C22.1936 13.0639 22.4681 14.037 22.4681 16.085H24C24 14.0479 23.7639 12.4678 22.7544 11.4583C21.7449 10.4487 20.1647 10.2126 18.1277 10.2126V11.7446ZM22.4681 16.085V18.1275H24V16.085H22.4681ZM22.4681 18.1275C22.4681 20.1756 22.1936 21.1487 21.6712 21.6711C21.1488 22.1934 20.1758 22.468 18.1277 22.468V23.9999C20.1647 23.9999 21.7449 23.7638 22.7544 22.7542C23.7639 21.7447 24 20.1646 24 18.1275H22.4681Z" fill="#227DDE"/>
<path d="M16.8531 15.8298C16.289 15.8298 15.8318 16.2871 15.8318 16.8511C15.8318 17.4151 16.289 17.8724 16.8531 17.8724V15.8298ZM16.8622 17.8724C17.4263 17.8724 17.8835 17.4151 17.8835 16.8511C17.8835 16.2871 17.4263 15.8298 16.8622 15.8298V17.8724ZM16.8531 17.8724H16.8622V15.8298H16.8531V17.8724Z" fill="#227DDE"/>
<path d="M12.767 15.8298C12.203 15.8298 11.7457 16.2871 11.7457 16.8511C11.7457 17.4151 12.203 17.8724 12.767 17.8724V15.8298ZM12.7762 17.8724C13.3402 17.8724 13.7975 17.4151 13.7975 16.8511C13.7975 16.2871 13.3402 15.8298 12.7762 15.8298V17.8724ZM12.767 17.8724H12.7762V15.8298H12.767V17.8724Z" fill="#227DDE"/>
<path d="M8.68082 15.8298C8.11679 15.8298 7.65955 16.2871 7.65955 16.8511C7.65955 17.4151 8.11679 17.8724 8.68082 17.8724V15.8298ZM8.69 17.8724C9.25403 17.8724 9.71127 17.4151 9.71127 16.8511C9.71127 16.2871 9.25403 15.8298 8.69 15.8298V17.8724ZM8.68082 17.8724H8.69V15.8298H8.68082V17.8724Z" fill="#227DDE"/>
</svg>
