<svg width="24" height="24" viewBox="0 0 24 24" fill="none" xmlns="http://www.w3.org/2000/svg">
<path d="M14.4873 8.96718L15.0659 9.54572C15.3854 9.2262 15.3854 8.70815 15.0659 8.38863L14.4873 8.96718ZM8.96731 14.4872L8.38877 15.0657C8.70829 15.3852 9.22634 15.3852 9.54586 15.0657L8.96731 14.4872ZM13.9088 8.38863L8.38877 13.9086L9.54586 15.0657L15.0659 9.54572L13.9088 8.38863ZM9.54586 13.9086C8.9832 13.346 8.64004 12.5805 8.64004 11.7272H7.00368C7.00368 13.0339 7.53325 14.2102 8.38877 15.0657L9.54586 13.9086ZM8.64004 11.7272C8.64004 10.019 10.0192 8.6399 11.7273 8.6399V7.00354C9.11545 7.00354 7.00368 9.11531 7.00368 11.7272H8.64004ZM11.7273 8.6399C12.5806 8.6399 13.3461 8.98306 13.9088 9.54572L15.0659 8.38863C14.2103 7.53311 13.034 7.00354 11.7273 7.00354V8.6399Z" fill="#A1A8B0"/>
<path d="M17.5837 5.58411C17.9443 5.85621 18.4574 5.78436 18.7296 5.4236C19.0016 5.06285 18.9298 4.54982 18.569 4.2777L17.5837 5.58411ZM1.78906 8.90181L2.47872 9.34203L2.47941 9.34095L1.78906 8.90181ZM1.78906 14.5636L2.4791 14.124L2.47872 14.1235L1.78906 14.5636ZM4.21193 18.6421C4.55453 18.9368 5.07112 18.8979 5.36576 18.5553C5.66039 18.2127 5.62151 17.6961 5.27891 17.4015L4.21193 18.6421ZM18.569 4.2777C16.5332 2.74211 14.1813 1.88727 11.7272 1.88727V3.52363C13.7895 3.52363 15.8012 4.23969 17.5837 5.58411L18.569 4.2777ZM11.7272 1.88727C7.52926 1.88727 3.707 4.36232 1.09871 8.46268L2.47941 9.34095C4.86748 5.58676 8.2234 3.52363 11.7272 3.52363V1.88727ZM1.09939 8.4616C0.504396 9.39377 0.234512 10.5881 0.234512 11.7327C0.234512 12.8774 0.504396 14.0716 1.09939 15.0038L2.47872 14.1235C2.0919 13.5174 1.87088 12.6499 1.87088 11.7327C1.87088 10.8155 2.0919 9.94804 2.47872 9.34203L1.09939 8.4616ZM1.09902 15.0033C2.00036 16.4181 3.05548 17.6476 4.21193 18.6421L5.27891 17.4015C4.25354 16.5196 3.3014 15.4146 2.4791 14.124L1.09902 15.0033Z" fill="#A1A8B0"/>
<path d="M8.13957 19.1877C7.72311 19.0123 7.24336 19.2078 7.06801 19.6243C6.89266 20.0407 7.08811 20.5205 7.50457 20.6958L8.13957 19.1877ZM21.6657 14.5527L20.976 14.1124L20.9754 14.1135L21.6657 14.5527ZM21.6657 8.89084L20.9749 9.32924L20.976 9.33106L21.6657 8.89084ZM21.1469 6.7744C20.8637 6.4223 20.3487 6.36645 19.9965 6.64967C19.6445 6.93288 19.5886 7.4479 19.8718 7.80001L21.1469 6.7744ZM7.50457 20.6958C8.84188 21.2589 10.2695 21.5672 11.7275 21.5672V19.9308C10.5019 19.9308 9.28953 19.6719 8.13957 19.1877L7.50457 20.6958ZM11.7275 21.5672C15.9255 21.5672 19.7478 19.0922 22.356 14.9918L20.9754 14.1135C18.5873 17.8677 15.2314 19.9308 11.7275 19.9308V21.5672ZM22.3554 14.9929C22.9504 14.0607 23.2203 12.8664 23.2203 11.7218C23.2203 10.5771 22.9504 9.3828 22.3554 8.45063L20.976 9.33106C21.3629 9.93707 21.5839 10.8046 21.5839 11.7218C21.5839 12.6389 21.3629 13.5064 20.976 14.1124L22.3554 14.9929ZM22.3565 8.45244C21.9771 7.85453 21.5657 7.29506 21.1469 6.7744L19.8718 7.80001C20.2603 8.28299 20.6344 8.7926 20.9749 9.32924L22.3565 8.45244Z" fill="#A1A8B0"/>
<path d="M16.3611 12.6394C16.443 12.195 16.1492 11.7683 15.7048 11.6864C15.2604 11.6044 14.8338 11.8982 14.7518 12.3426L16.3611 12.6394ZM12.3317 14.7627C11.8873 14.8447 11.5935 15.2714 11.6755 15.7157C11.7574 16.1601 12.1841 16.4539 12.6285 16.372L12.3317 14.7627ZM14.7518 12.3426C14.5297 13.5472 13.5362 14.5406 12.3317 14.7627L12.6285 16.372C14.5003 16.0268 16.0159 14.5112 16.3611 12.6394L14.7518 12.3426Z" fill="#A1A8B0"/>
<path d="M9.54581 15.0659C9.86533 14.7463 9.86533 14.2283 9.54581 13.9088C9.2263 13.5892 8.70825 13.5892 8.38873 13.9088L9.54581 15.0659ZM0.23964 22.0579C-0.0798799 22.3774 -0.0798799 22.8954 0.23964 23.2149C0.559159 23.5345 1.0772 23.5345 1.39672 23.2149L0.23964 22.0579ZM8.38873 13.9088L0.23964 22.0579L1.39672 23.2149L9.54581 15.0659L8.38873 13.9088Z" fill="#A1A8B0"/>
<path d="M23.2149 1.39672C23.5345 1.0772 23.5345 0.559159 23.2149 0.23964C22.8954 -0.0798799 22.3774 -0.0798799 22.0579 0.23964L23.2149 1.39672ZM13.9088 8.38873C13.5892 8.70825 13.5892 9.2263 13.9088 9.54581C14.2283 9.86533 14.7463 9.86533 15.0659 9.54581L13.9088 8.38873ZM22.0579 0.23964L13.9088 8.38873L15.0659 9.54581L23.2149 1.39672L22.0579 0.23964Z" fill="#A1A8B0"/>
</svg>
