<svg width="24" height="24" viewBox="0 0 24 24" fill="none" xmlns="http://www.w3.org/2000/svg">
<path d="M18.1277 22.3638H7.91494V24.0002H18.1277V22.3638ZM7.91494 22.3638C6.50044 22.3638 5.4387 21.9859 4.73401 21.287C4.03959 20.5982 3.57452 19.4805 3.57452 17.7275H2.0426C2.0426 19.7925 2.59881 21.4022 3.69162 22.4861C4.77416 23.5599 6.26561 24.0002 7.91494 24.0002V22.3638ZM3.57452 17.7275V10.0911H2.0426V17.7275H3.57452ZM3.57452 10.0911C3.57452 8.33794 4.03959 7.22034 4.73401 6.53156C5.4387 5.83258 6.50044 5.45472 7.91494 5.45472V3.81836C6.26561 3.81836 4.77416 4.25869 3.69162 5.33244C2.59881 6.41638 2.0426 8.02605 2.0426 10.0911H3.57452ZM7.91494 5.45472H18.1277V3.81836H7.91494V5.45472ZM18.1277 5.45472C19.5422 5.45472 20.6039 5.83258 21.3087 6.53156C22.003 7.22034 22.4681 8.33794 22.4681 10.0911H24C24 8.02605 23.4439 6.41638 22.351 5.33244C21.2685 4.25869 19.7771 3.81836 18.1277 3.81836V5.45472ZM22.4681 10.0911V17.7275H24V10.0911H22.4681ZM22.4681 17.7275C22.4681 19.4805 22.003 20.5982 21.3087 21.287C20.6039 21.9859 19.5422 22.3638 18.1277 22.3638V24.0002C19.7771 24.0002 21.2685 23.5599 22.351 22.4861C23.4439 21.4022 24 19.7925 24 17.7275H22.4681Z" fill="#227DDE"/>
<path d="M18.6057 11.2759C18.9362 10.9939 18.9901 10.479 18.7261 10.126C18.4621 9.77289 17.9802 9.71527 17.6497 9.99728L18.6057 11.2759ZM14.9311 13.3638L15.4082 14.0039L15.4091 14.0031L14.9311 13.3638ZM11.1013 13.3638L10.6223 14.0023L10.6242 14.0039L11.1013 13.3638ZM8.39387 9.99808C8.06375 9.71552 7.58169 9.77233 7.31717 10.125C7.05265 10.4776 7.10583 10.9925 7.43595 11.2751L8.39387 9.99808ZM17.6497 9.99728L14.4531 12.7245L15.4091 14.0031L18.6057 11.2759L17.6497 9.99728ZM14.454 12.7237C13.6813 13.3809 12.3511 13.3809 11.5784 12.7237L10.6242 14.0039C11.9553 15.1359 14.077 15.1359 15.4082 14.0039L14.454 12.7237ZM11.5802 12.7253L8.39387 9.99808L7.43595 11.2751L10.6223 14.0023L11.5802 12.7253Z" fill="#227DDE"/>
</svg>
