<svg width="24" height="24" viewBox="0 0 24 24" fill="none" xmlns="http://www.w3.org/2000/svg">
<path d="M14.4873 8.9673L15.0658 9.54584C15.3853 9.22632 15.3853 8.70828 15.0658 8.38876L14.4873 8.9673ZM8.96727 14.4873L8.38873 15.0658C8.70825 15.3854 9.22629 15.3854 9.54581 15.0658L8.96727 14.4873ZM13.9087 8.38876L8.38873 13.9088L9.54581 15.0658L15.0658 9.54584L13.9087 8.38876ZM9.54581 13.9088C8.98315 13.3461 8.64 12.5806 8.64 11.7273H7.00363C7.00363 13.034 7.5332 14.2103 8.38873 15.0658L9.54581 13.9088ZM8.64 11.7273C8.64 10.0192 10.0191 8.64003 11.7273 8.64003V7.00366C9.1154 7.00366 7.00363 9.11543 7.00363 11.7273H8.64ZM11.7273 8.64003C12.5806 8.64003 13.3461 8.98318 13.9087 9.54584L15.0658 8.38876C14.2103 7.53323 13.034 7.00366 11.7273 7.00366V8.64003Z" fill="#A1A8B0"/>
<path d="M17.5837 5.58405C17.9443 5.85615 18.4574 5.78429 18.7296 5.42354C19.0017 5.06279 18.9298 4.54976 18.569 4.27764L17.5837 5.58405ZM1.78907 8.90175L2.47873 9.34197L2.47942 9.34089L1.78907 8.90175ZM1.78907 14.5636L2.47912 14.1239L2.47873 14.1234L1.78907 14.5636ZM4.21195 18.642C4.55455 18.9367 5.07114 18.8979 5.36577 18.5552C5.6604 18.2127 5.62152 17.696 5.27892 17.4015L4.21195 18.642ZM18.569 4.27764C16.5333 2.74205 14.1814 1.88721 11.7273 1.88721V3.52357C13.7895 3.52357 15.8013 4.23963 17.5837 5.58405L18.569 4.27764ZM11.7273 1.88721C7.52927 1.88721 3.70701 4.36226 1.09873 8.46262L2.47942 9.34089C4.8675 5.5867 8.22342 3.52357 11.7273 3.52357V1.88721ZM1.09941 8.46154C0.504411 9.39371 0.234528 10.588 0.234528 11.7327C0.234528 12.8773 0.504411 14.0716 1.09941 15.0038L2.47873 14.1234C2.09192 13.5173 1.87089 12.6499 1.87089 11.7327C1.87089 10.8155 2.09192 9.94798 2.47873 9.34197L1.09941 8.46154ZM1.09903 15.0032C2.00037 16.418 3.0555 17.6476 4.21195 18.642L5.27892 17.4015C4.25356 16.5196 3.30141 15.4146 2.47912 14.1239L1.09903 15.0032Z" fill="#A1A8B0"/>
<path d="M8.13953 19.1878C7.72307 19.0124 7.24331 19.2079 7.06796 19.6244C6.89261 20.0408 7.08807 20.5206 7.50452 20.6959L8.13953 19.1878ZM21.6657 14.5528L20.976 14.1126L20.9753 14.1136L21.6657 14.5528ZM21.6657 8.89096L20.9749 9.32937L20.976 9.33118L21.6657 8.89096ZM21.1468 6.77452C20.8636 6.42242 20.3486 6.36658 19.9965 6.64979C19.6444 6.933 19.5886 7.44803 19.8718 7.80013L21.1468 6.77452ZM7.50452 20.6959C8.84184 21.259 10.2694 21.5673 11.7275 21.5673V19.931C10.5019 19.931 9.28948 19.672 8.13953 19.1878L7.50452 20.6959ZM11.7275 21.5673C15.9255 21.5673 19.7477 19.0923 22.356 14.9919L20.9753 14.1136C18.5872 17.8678 15.2313 19.931 11.7275 19.931V21.5673ZM22.3553 14.993C22.9503 14.0608 23.2202 12.8665 23.2202 11.7219C23.2202 10.5772 22.9503 9.38292 22.3553 8.45075L20.976 9.33118C21.3628 9.93719 21.5838 10.8047 21.5838 11.7219C21.5838 12.6391 21.3628 13.5066 20.976 14.1126L22.3553 14.993ZM22.3564 8.45256C21.977 7.85466 21.5656 7.29518 21.1468 6.77452L19.8718 7.80013C20.2602 8.28311 20.6343 8.79273 20.9749 9.32937L22.3564 8.45256Z" fill="#A1A8B0"/>
<path d="M16.3611 12.6394C16.4431 12.195 16.1493 11.7684 15.7049 11.6864C15.2605 11.6045 14.8339 11.8983 14.7519 12.3427L16.3611 12.6394ZM12.3318 14.7628C11.8874 14.8447 11.5936 15.2714 11.6755 15.7158C11.7575 16.1602 12.1842 16.454 12.6285 16.372L12.3318 14.7628ZM14.7519 12.3427C14.5298 13.5472 13.5363 14.5407 12.3318 14.7628L12.6285 16.372C14.5004 16.0269 16.016 14.5113 16.3611 12.6394L14.7519 12.3427Z" fill="#A1A8B0"/>
<path d="M9.54581 15.0658C9.86533 14.7463 9.86533 14.2282 9.54581 13.9087C9.2263 13.5892 8.70825 13.5892 8.38873 13.9087L9.54581 15.0658ZM0.23964 22.0578C-0.0798799 22.3773 -0.0798799 22.8954 0.23964 23.2149C0.559159 23.5344 1.0772 23.5344 1.39672 23.2149L0.23964 22.0578ZM8.38873 13.9087L0.23964 22.0578L1.39672 23.2149L9.54581 15.0658L8.38873 13.9087Z" fill="#A1A8B0"/>
<path d="M23.2149 1.39672C23.5344 1.0772 23.5344 0.559159 23.2149 0.23964C22.8954 -0.0798799 22.3773 -0.0798799 22.0578 0.23964L23.2149 1.39672ZM13.9087 8.38873C13.5892 8.70825 13.5892 9.2263 13.9087 9.54581C14.2283 9.86533 14.7463 9.86533 15.0658 9.54581L13.9087 8.38873ZM22.0578 0.23964L13.9087 8.38873L15.0658 9.54581L23.2149 1.39672L22.0578 0.23964Z" fill="#A1A8B0"/>
</svg>
