<svg width="24" height="24" viewBox="0 0 24 24" fill="none" xmlns="http://www.w3.org/2000/svg">
<path d="M18.1276 22.3638H7.91488V24.0002H18.1276V22.3638ZM7.91488 22.3638C6.50038 22.3638 5.43864 21.9859 4.73395 21.287C4.03953 20.5982 3.57446 19.4805 3.57446 17.7275H2.04254C2.04254 19.7925 2.59874 21.4022 3.69156 22.4861C4.7741 23.5599 6.26555 24.0002 7.91488 24.0002V22.3638ZM3.57446 17.7275V10.0911H2.04254V17.7275H3.57446ZM3.57446 10.0911C3.57446 8.33794 4.03953 7.22034 4.73395 6.53156C5.43864 5.83258 6.50038 5.45472 7.91488 5.45472V3.81836C6.26555 3.81836 4.7741 4.25869 3.69156 5.33244C2.59874 6.41638 2.04254 8.02605 2.04254 10.0911H3.57446ZM7.91488 5.45472H18.1276V3.81836H7.91488V5.45472ZM18.1276 5.45472C19.5421 5.45472 20.6038 5.83258 21.3086 6.53156C22.003 7.22034 22.4681 8.33794 22.4681 10.0911H24C24 8.02605 23.4438 6.41638 22.3509 5.33244C21.2685 4.25869 19.777 3.81836 18.1276 3.81836V5.45472ZM22.4681 10.0911V17.7275H24V10.0911H22.4681ZM22.4681 17.7275C22.4681 19.4805 22.003 20.5982 21.3086 21.287C20.6038 21.9859 19.5421 22.3638 18.1276 22.3638V24.0002C19.777 24.0002 21.2685 23.5599 22.3509 22.4861C23.4438 21.4022 24 19.7925 24 17.7275H22.4681Z" fill="#A1A8B0"/>
<path d="M18.6057 11.2759C18.9362 10.9939 18.9901 10.479 18.7261 10.126C18.4621 9.77289 17.9802 9.71527 17.6497 9.99728L18.6057 11.2759ZM14.9311 13.3638L15.4082 14.0039L15.4091 14.0031L14.9311 13.3638ZM11.1013 13.3638L10.6223 14.0023L10.6242 14.0039L11.1013 13.3638ZM8.39387 9.99808C8.06375 9.71552 7.58169 9.77233 7.31717 10.125C7.05265 10.4776 7.10583 10.9925 7.43595 11.2751L8.39387 9.99808ZM17.6497 9.99728L14.4531 12.7245L15.4091 14.0031L18.6057 11.2759L17.6497 9.99728ZM14.454 12.7237C13.6813 13.3809 12.3511 13.3809 11.5784 12.7237L10.6242 14.0039C11.9553 15.1359 14.077 15.1359 15.4082 14.0039L14.454 12.7237ZM11.5802 12.7253L8.39387 9.99808L7.43595 11.2751L10.6223 14.0023L11.5802 12.7253Z" fill="#A1A8B0"/>
</svg>
