<svg width="24" height="24" viewBox="0 0 24 24" fill="none" xmlns="http://www.w3.org/2000/svg">
<path d="M18.1276 22.3636H7.91488V24H18.1276V22.3636ZM7.91488 22.3636C6.50038 22.3636 5.43864 21.9857 4.73395 21.2868C4.03953 20.598 3.57446 19.4804 3.57446 17.7273H2.04254C2.04254 19.7924 2.59874 21.402 3.69156 22.4859C4.7741 23.5597 6.26555 24 7.91488 24V22.3636ZM3.57446 17.7273V10.0909H2.04254V17.7273H3.57446ZM3.57446 10.0909C3.57446 8.33776 4.03953 7.22015 4.73395 6.53138C5.43864 5.8324 6.50038 5.45454 7.91488 5.45454V3.81818C6.26555 3.81818 4.7741 4.2585 3.69156 5.33225C2.59874 6.4162 2.04254 8.02587 2.04254 10.0909H3.57446ZM7.91488 5.45454H18.1276V3.81818H7.91488V5.45454ZM18.1276 5.45454C19.5421 5.45454 20.6038 5.8324 21.3086 6.53138C22.003 7.22015 22.4681 8.33776 22.4681 10.0909H24C24 8.02587 23.4438 6.4162 22.3509 5.33225C21.2685 4.2585 19.777 3.81818 18.1276 3.81818V5.45454ZM22.4681 10.0909V17.7273H24V10.0909H22.4681ZM22.4681 17.7273C22.4681 19.4804 22.003 20.598 21.3086 21.2868C20.6038 21.9857 19.5421 22.3636 18.1276 22.3636V24C19.777 24 21.2685 23.5597 22.3509 22.4859C23.4438 21.402 24 19.7924 24 17.7273H22.4681Z" fill="#A1A8B0"/>
<path d="M18.6057 11.2757C18.9362 10.9937 18.9901 10.4788 18.7261 10.1258C18.4621 9.7727 17.9802 9.71509 17.6497 9.9971L18.6057 11.2757ZM14.9311 13.3637L15.4081 14.0038L15.4091 14.003L14.9311 13.3637ZM11.1013 13.3637L10.6223 14.0022L10.6242 14.0038L11.1013 13.3637ZM8.39387 9.9979C8.06375 9.71534 7.58169 9.77215 7.31717 10.1248C7.05265 10.4774 7.10583 10.9923 7.43595 11.2749L8.39387 9.9979ZM17.6497 9.9971L14.4531 12.7244L15.4091 14.003L18.6057 11.2757L17.6497 9.9971ZM14.454 12.7236C13.6813 13.3807 12.3511 13.3807 11.5784 12.7236L10.6242 14.0038C11.9553 15.1357 14.077 15.1357 15.4081 14.0038L14.454 12.7236ZM11.5802 12.7252L8.39387 9.9979L7.43595 11.2749L10.6223 14.0021L11.5802 12.7252Z" fill="#A1A8B0"/>
</svg>
