<svg width="16" height="16" viewBox="0 0 16 16" fill="none" xmlns="http://www.w3.org/2000/svg">
<path d="M3.78922 7.55341C3.53244 7.30677 3.11612 7.30677 2.85933 7.55341C2.60255 7.80006 2.60255 8.19996 2.85933 8.4466L3.78922 7.55341ZM6.83111 11.3684L6.36617 11.815C6.4968 11.9405 6.67636 12.0074 6.86091 11.9994C7.04546 11.9913 7.21798 11.9091 7.33625 11.7727L6.83111 11.3684ZM13.1809 5.03592C13.4134 4.76796 13.3757 4.36971 13.0968 4.1464C12.8178 3.9231 12.4032 3.9593 12.1707 4.22727L13.1809 5.03592ZM2.85933 8.4466L6.36617 11.815L7.29606 10.9218L3.78922 7.55341L2.85933 8.4466ZM7.33625 11.7727L13.1809 5.03592L12.1707 4.22727L6.32598 10.9641L7.33625 11.7727Z" fill="#13B97D"/>
</svg>
