<svg width="24" height="24" viewBox="0 0 24 24" fill="none" xmlns="http://www.w3.org/2000/svg">
<path d="M18.4699 7.91488C18.4699 10.312 16.4025 12.2553 13.8524 12.2553V13.7872C17.3026 13.7872 20.0995 11.1581 20.0995 7.91488H18.4699ZM13.8524 12.2553C11.3022 12.2553 9.23492 10.312 9.23492 7.91488H7.60522C7.60522 11.1581 10.4022 13.7872 13.8524 13.7872V12.2553ZM9.23492 7.91488C9.23492 5.51773 11.3022 3.57446 13.8524 3.57446V2.04254C10.4022 2.04254 7.60522 4.67167 7.60522 7.91488H9.23492ZM13.8524 3.57446C16.4025 3.57446 18.4699 5.51773 18.4699 7.91488H20.0995C20.0995 4.67167 17.3026 2.04254 13.8524 2.04254V3.57446Z" fill="#A1A8B0"/>
<path d="M22.3703 23.234C22.3703 23.6571 22.7351 24 23.1851 24C23.6352 24 24 23.6571 24 23.234H22.3703ZM3.70486 23.234C3.70486 23.6571 4.06968 24 4.51971 24C4.96974 24 5.33456 23.6571 5.33456 23.234H3.70486ZM24 23.234C24 18.7191 19.2879 15.3192 13.8524 15.3192V16.8511C18.7166 16.8511 22.3703 19.8443 22.3703 23.234H24ZM13.8524 15.3192C8.41698 15.3192 3.70486 18.7191 3.70486 23.234H5.33456C5.33456 19.8443 8.98819 16.8511 13.8524 16.8511V15.3192Z" fill="#A1A8B0"/>
</svg>
