<svg width="16" height="16" viewBox="0 0 16 16" fill="none" xmlns="http://www.w3.org/2000/svg">
<path d="M3.78911 7.55341C3.53233 7.30677 3.116 7.30677 2.85921 7.55341C2.60243 7.80006 2.60243 8.19996 2.85921 8.4466L3.78911 7.55341ZM6.83102 11.3684L6.36607 11.815C6.4967 11.9405 6.67626 12.0074 6.86081 11.9994C7.04536 11.9913 7.21788 11.9091 7.33615 11.7727L6.83102 11.3684ZM13.1809 5.03592C13.4134 4.76796 13.3757 4.36971 13.0967 4.1464C12.8177 3.9231 12.4031 3.9593 12.1706 4.22727L13.1809 5.03592ZM2.85921 8.4466L6.36607 11.815L7.29596 10.9218L3.78911 7.55341L2.85921 8.4466ZM7.33615 11.7727L13.1809 5.03592L12.1706 4.22727L6.32588 10.9641L7.33615 11.7727Z" fill="#13B97D"/>
</svg>
