<svg width="24" height="24" viewBox="0 0 24 24" fill="none" xmlns="http://www.w3.org/2000/svg">
<path d="M18.1277 22.3636H7.91494V23.9999H18.1277V22.3636ZM7.91494 22.3636C6.50044 22.3636 5.4387 21.9857 4.73401 21.2867C4.03959 20.5979 3.57452 19.4803 3.57452 17.7272H2.0426C2.0426 19.7923 2.59881 21.4019 3.69162 22.4859C4.77416 23.5596 6.26561 23.9999 7.91494 23.9999V22.3636ZM3.57452 17.7272V10.0908H2.0426V17.7272H3.57452ZM3.57452 10.0908C3.57452 8.3377 4.03959 7.22009 4.73401 6.53132C5.4387 5.83234 6.50044 5.45448 7.91494 5.45448V3.81812C6.26561 3.81812 4.77416 4.25844 3.69162 5.33219C2.59881 6.41614 2.0426 8.02581 2.0426 10.0908H3.57452ZM7.91494 5.45448H18.1277V3.81812H7.91494V5.45448ZM18.1277 5.45448C19.5422 5.45448 20.6039 5.83234 21.3087 6.53132C22.003 7.22009 22.4681 8.3377 22.4681 10.0908H24C24 8.02581 23.4439 6.41614 22.351 5.33219C21.2685 4.25844 19.7771 3.81812 18.1277 3.81812V5.45448ZM22.4681 10.0908V17.7272H24V10.0908H22.4681ZM22.4681 17.7272C22.4681 19.4803 22.003 20.5979 21.3087 21.2867C20.6039 21.9857 19.5422 22.3636 18.1277 22.3636V23.9999C19.7771 23.9999 21.2685 23.5596 22.351 22.4859C23.4439 21.4019 24 19.7923 24 17.7272H22.4681Z" fill="#227DDE"/>
<path d="M18.6057 11.2756C18.9362 10.9936 18.9901 10.4788 18.7261 10.1257C18.4621 9.77264 17.9802 9.71503 17.6497 9.99704L18.6057 11.2756ZM14.9311 13.3636L15.4081 14.0037L15.4091 14.0029L14.9311 13.3636ZM11.1013 13.3636L10.6223 14.0021L10.6242 14.0037L11.1013 13.3636ZM8.39387 9.99783C8.06375 9.71528 7.58169 9.77208 7.31717 10.1247C7.05265 10.4773 7.10583 10.9923 7.43595 11.2748L8.39387 9.99783ZM17.6497 9.99704L14.4531 12.7243L15.4091 14.0029L18.6057 11.2756L17.6497 9.99704ZM14.454 12.7235C13.6813 13.3806 12.3511 13.3806 11.5784 12.7235L10.6242 14.0037C11.9553 15.1357 14.077 15.1357 15.4081 14.0037L14.454 12.7235ZM11.5802 12.7251L8.39387 9.99783L7.43595 11.2748L10.6223 14.0021L11.5802 12.7251Z" fill="#227DDE"/>
</svg>
