<svg width="24" height="24" viewBox="0 0 24 24" fill="none" xmlns="http://www.w3.org/2000/svg">
<path d="M6.12769 10.9787C6.12769 11.4017 6.47062 11.7446 6.89364 11.7446C7.31667 11.7446 7.6596 11.4017 7.6596 10.9787H6.12769ZM18.383 10.9787C18.383 11.4017 18.7259 11.7446 19.149 11.7446C19.572 11.7446 19.9149 11.4017 19.9149 10.9787H18.383ZM7.6596 10.9787V8.9361H6.12769V10.9787H7.6596ZM7.6596 8.9361C7.6596 7.29171 7.91524 5.98371 8.63908 5.08511C9.33411 4.22228 10.5992 3.5744 13.0213 3.5744V2.04248C10.337 2.04248 8.53829 2.76821 7.44608 4.12411C6.38269 5.44423 6.12769 7.20006 6.12769 8.9361H7.6596ZM13.0213 3.5744C15.4434 3.5744 16.7085 4.22228 17.4035 5.08511C18.1274 5.98371 18.383 7.29171 18.383 8.9361H19.9149C19.9149 7.20006 19.6599 5.44423 18.5966 4.12411C17.5043 2.76821 15.7056 2.04248 13.0213 2.04248V3.5744ZM18.383 8.9361V10.9787H19.9149V8.9361H18.383Z" fill="#A1A8B0"/>
<path d="M18.1276 22.468H7.91488V23.9999H18.1276V22.468ZM7.91488 22.468C5.86685 22.468 4.89376 22.1934 4.37139 21.6711C3.84902 21.1487 3.57446 20.1756 3.57446 18.1275H2.04254C2.04254 20.1646 2.27862 21.7447 3.28816 22.7542C4.2977 23.7638 5.8778 23.9999 7.91488 23.9999V22.468ZM3.57446 18.1275V16.085H2.04254V18.1275H3.57446ZM3.57446 16.085C3.57446 14.037 3.84902 13.0639 4.37139 12.5415C4.89376 12.0191 5.86685 11.7446 7.91488 11.7446V10.2126C5.8778 10.2126 4.2977 10.4487 3.28816 11.4583C2.27862 12.4678 2.04254 14.0479 2.04254 16.085H3.57446ZM7.91488 11.7446H18.1276V10.2126H7.91488V11.7446ZM18.1276 11.7446C20.1757 11.7446 21.1488 12.0191 21.6712 12.5415C22.1936 13.0639 22.4681 14.037 22.4681 16.085H24C24 14.0479 23.7639 12.4678 22.7543 11.4583C21.7448 10.4487 20.1647 10.2126 18.1276 10.2126V11.7446ZM22.4681 16.085V18.1275H24V16.085H22.4681ZM22.4681 18.1275C22.4681 20.1756 22.1936 21.1487 21.6712 21.6711C21.1488 22.1934 20.1757 22.468 18.1276 22.468V23.9999C20.1647 23.9999 21.7448 23.7638 22.7543 22.7542C23.7639 21.7447 24 20.1646 24 18.1275H22.4681Z" fill="#A1A8B0"/>
<path d="M16.8531 15.8298C16.289 15.8298 15.8318 16.2871 15.8318 16.8511C15.8318 17.4151 16.289 17.8724 16.8531 17.8724V15.8298ZM16.8622 17.8724C17.4263 17.8724 17.8835 17.4151 17.8835 16.8511C17.8835 16.2871 17.4263 15.8298 16.8622 15.8298V17.8724ZM16.8531 17.8724H16.8622V15.8298H16.8531V17.8724Z" fill="#A1A8B0"/>
<path d="M12.7669 15.8298C12.2029 15.8298 11.7457 16.2871 11.7457 16.8511C11.7457 17.4151 12.2029 17.8724 12.7669 17.8724V15.8298ZM12.7761 17.8724C13.3401 17.8724 13.7974 17.4151 13.7974 16.8511C13.7974 16.2871 13.3401 15.8298 12.7761 15.8298V17.8724ZM12.7669 17.8724H12.7761V15.8298H12.7669V17.8724Z" fill="#A1A8B0"/>
<path d="M8.68082 15.8298C8.11679 15.8298 7.65955 16.2871 7.65955 16.8511C7.65955 17.4151 8.11679 17.8724 8.68082 17.8724V15.8298ZM8.69 17.8724C9.25403 17.8724 9.71127 17.4151 9.71127 16.8511C9.71127 16.2871 9.25403 15.8298 8.69 15.8298V17.8724ZM8.68082 17.8724H8.69V15.8298H8.68082V17.8724Z" fill="#A1A8B0"/>
</svg>
