<svg width="383" height="820" viewBox="0 0 383 820" fill="none" xmlns="http://www.w3.org/2000/svg">
<g filter="url(#filter0_d_34_773)">
<rect x="4" width="375" height="812" fill="black" fill-opacity="0.05"/>
<circle cx="200" cy="329" r="92.5" stroke="#227DDE"/>
<circle cx="85.5" cy="490.5" r="13" fill="white" stroke="#227DDE"/>
<path d="M83.8594 484.516C83.8594 484.329 83.7853 484.15 83.6534 484.018C83.5216 483.887 83.3427 483.812 83.1562 483.812C82.9698 483.812 82.7909 483.887 82.6591 484.018C82.5272 484.15 82.4531 484.329 82.4531 484.516V484.984H83.8594V484.516Z" fill="#227DDE"/>
<path d="M81.2812 492.367C80.9336 492.367 80.5937 492.47 80.3047 492.663C80.0156 492.857 79.7903 493.131 79.6572 493.452C79.5242 493.774 79.4894 494.127 79.5572 494.468C79.625 494.809 79.7925 495.122 80.0383 495.368C80.2841 495.614 80.5973 495.781 80.9383 495.849C81.2793 495.917 81.6327 495.882 81.9539 495.749C82.2751 495.616 82.5497 495.391 82.7428 495.102C82.936 494.813 83.0391 494.473 83.0391 494.125C83.0385 493.659 82.8532 493.212 82.5236 492.883C82.1941 492.553 81.7473 492.368 81.2812 492.367ZM81.2812 494.828C81.1422 494.828 81.0062 494.787 80.8906 494.71C80.775 494.632 80.6849 494.523 80.6316 494.394C80.5784 494.266 80.5645 494.124 80.5916 493.988C80.6188 493.851 80.6857 493.726 80.7841 493.628C80.8824 493.529 81.0077 493.463 81.1441 493.435C81.2805 493.408 81.4218 493.422 81.5503 493.475C81.6788 493.529 81.7886 493.619 81.8659 493.734C81.9431 493.85 81.9844 493.986 81.9844 494.125C81.9844 494.311 81.9103 494.49 81.7784 494.622C81.6466 494.754 81.4677 494.828 81.2812 494.828Z" fill="#227DDE"/>
<path d="M90.1875 492.367C89.8398 492.367 89.5 492.47 89.2109 492.663C88.9218 492.857 88.6965 493.131 88.5635 493.452C88.4304 493.774 88.3956 494.127 88.4635 494.468C88.5313 494.809 88.6987 495.122 88.9445 495.368C89.1904 495.614 89.5036 495.781 89.8446 495.849C90.1855 495.917 90.539 495.882 90.8602 495.749C91.1814 495.616 91.4559 495.391 91.6491 495.102C91.8422 494.813 91.9453 494.473 91.9453 494.125C91.9448 493.659 91.7594 493.212 91.4299 492.883C91.1003 492.553 90.6535 492.368 90.1875 492.367ZM90.1875 494.828C90.0484 494.828 89.9125 494.787 89.7969 494.71C89.6812 494.632 89.5911 494.523 89.5379 494.394C89.4847 494.266 89.4708 494.124 89.4979 493.988C89.525 493.851 89.592 493.726 89.6903 493.628C89.7886 493.529 89.9139 493.463 90.0503 493.435C90.1867 493.408 90.3281 493.422 90.4566 493.475C90.585 493.529 90.6949 493.619 90.7721 493.734C90.8494 493.85 90.8906 493.986 90.8906 494.125C90.8906 494.311 90.8165 494.49 90.6847 494.622C90.5528 494.754 90.374 494.828 90.1875 494.828Z" fill="#227DDE"/>
<path d="M92.4941 490.901L90.8994 490.103C90.6271 489.683 89.4092 487.805 89.0605 487.349C89.0277 487.306 88.9855 487.271 88.937 487.247C88.8886 487.223 88.8353 487.211 88.7813 487.211H87.1235L86.4775 485.919C86.3905 485.743 86.256 485.596 86.0892 485.493C85.9225 485.39 85.7302 485.335 85.5342 485.336H78.8203C78.6339 485.336 78.4552 485.41 78.3234 485.542C78.1916 485.674 78.1174 485.853 78.1172 486.039V493.422C78.1175 493.702 78.2287 493.97 78.4264 494.167C78.6242 494.365 78.8922 494.476 79.1719 494.477H79.2017C79.1503 494.174 79.1655 493.864 79.2463 493.568C79.3271 493.272 79.4715 492.997 79.6695 492.762C79.8675 492.528 80.1143 492.339 80.3927 492.21C80.6711 492.081 80.9743 492.014 81.2812 492.014C81.5882 492.014 81.8914 492.081 82.1698 492.21C82.4482 492.339 82.695 492.528 82.893 492.762C83.091 492.997 83.2354 493.272 83.3162 493.568C83.397 493.864 83.4122 494.174 83.3608 494.477H88.108C88.0572 494.178 88.0711 493.872 88.1489 493.58C88.2267 493.288 88.3665 493.015 88.5589 492.782C88.7512 492.548 88.9916 492.359 89.2636 492.226C89.5357 492.093 89.8331 492.021 90.1356 492.014C90.4381 492.006 90.7387 492.064 91.017 492.183C91.2952 492.302 91.5446 492.479 91.7481 492.703C91.9517 492.927 92.1047 493.192 92.1968 493.481C92.2889 493.769 92.3178 494.074 92.2817 494.374C92.4615 494.288 92.6134 494.153 92.7198 493.985C92.8261 493.816 92.8827 493.621 92.8828 493.422V491.53C92.8833 491.399 92.8471 491.271 92.7784 491.16C92.7097 491.049 92.6112 490.959 92.4941 490.901ZM85.0312 489.32C85.0312 489.414 84.9942 489.503 84.9283 489.569C84.8623 489.635 84.7729 489.672 84.6797 489.672H83.8594V490.492C83.8594 490.585 83.8223 490.675 83.7564 490.741C83.6905 490.807 83.6011 490.844 83.5078 490.844H82.8047C82.7114 490.844 82.622 490.807 82.5561 490.741C82.4902 490.675 82.4531 490.585 82.4531 490.492V489.672H81.6328C81.5396 489.672 81.4501 489.635 81.3842 489.569C81.3183 489.503 81.2812 489.414 81.2812 489.32V488.617C81.2812 488.524 81.3183 488.435 81.3842 488.369C81.4501 488.303 81.5396 488.266 81.6328 488.266H82.4531V487.445C82.4531 487.352 82.4902 487.263 82.5561 487.197C82.622 487.131 82.7114 487.094 82.8047 487.094H83.5078C83.6011 487.094 83.6905 487.131 83.7564 487.197C83.8223 487.263 83.8594 487.352 83.8594 487.445V488.266H84.6797C84.7729 488.266 84.8623 488.303 84.9283 488.369C84.9942 488.435 85.0312 488.524 85.0312 488.617V489.32ZM88.3125 491.664H87.873C87.7798 491.664 87.6904 491.627 87.6245 491.561C87.5585 491.495 87.5215 491.406 87.5215 491.313C87.5215 491.219 87.5585 491.13 87.6245 491.064C87.6904 490.998 87.7798 490.961 87.873 490.961H88.3125C88.4058 490.961 88.4952 490.998 88.5611 491.064C88.627 491.13 88.6641 491.219 88.6641 491.313C88.6641 491.406 88.627 491.495 88.5611 491.561C88.4952 491.627 88.4058 491.664 88.3125 491.664ZM90.1503 490.17H87.8437C87.7505 490.17 87.6611 490.133 87.5952 490.067C87.5292 490.001 87.4922 489.912 87.4922 489.818V488.031C87.4922 487.938 87.5292 487.849 87.5952 487.783C87.6611 487.717 87.7505 487.68 87.8437 487.68H88.6436C88.7008 487.68 88.7573 487.694 88.8079 487.72C88.8585 487.747 88.9019 487.786 88.9341 487.833C89.3589 488.456 89.9851 489.416 90.2979 489.899C90.3151 489.925 90.3249 489.956 90.3261 489.987C90.3273 490.019 90.3199 490.05 90.3048 490.078C90.2897 490.106 90.2674 490.129 90.2402 490.145C90.213 490.161 90.1819 490.17 90.1503 490.17Z" fill="#227DDE"/>
<circle cx="343.5" cy="369.5" r="13" fill="white" stroke="#227DDE"/>
<path d="M341.859 363.516C341.859 363.329 341.785 363.15 341.653 363.018C341.522 362.887 341.343 362.812 341.156 362.812C340.97 362.812 340.791 362.887 340.659 363.018C340.527 363.15 340.453 363.329 340.453 363.516V363.984H341.859V363.516Z" fill="#227DDE"/>
<path d="M339.281 371.367C338.934 371.367 338.594 371.47 338.305 371.663C338.016 371.857 337.79 372.131 337.657 372.452C337.524 372.774 337.489 373.127 337.557 373.468C337.625 373.809 337.792 374.122 338.038 374.368C338.284 374.614 338.597 374.781 338.938 374.849C339.279 374.917 339.633 374.882 339.954 374.749C340.275 374.616 340.55 374.391 340.743 374.102C340.936 373.813 341.039 373.473 341.039 373.125C341.039 372.659 340.853 372.212 340.524 371.883C340.194 371.553 339.747 371.368 339.281 371.367ZM339.281 373.828C339.142 373.828 339.006 373.787 338.891 373.71C338.775 373.632 338.685 373.523 338.632 373.394C338.578 373.266 338.565 373.124 338.592 372.988C338.619 372.851 338.686 372.726 338.784 372.628C338.882 372.529 339.008 372.463 339.144 372.435C339.28 372.408 339.422 372.422 339.55 372.475C339.679 372.529 339.789 372.619 339.866 372.734C339.943 372.85 339.984 372.986 339.984 373.125C339.984 373.311 339.91 373.49 339.778 373.622C339.647 373.754 339.468 373.828 339.281 373.828Z" fill="#227DDE"/>
<path d="M348.187 371.367C347.84 371.367 347.5 371.47 347.211 371.663C346.922 371.857 346.697 372.131 346.563 372.452C346.43 372.774 346.396 373.127 346.463 373.468C346.531 373.809 346.699 374.122 346.945 374.368C347.19 374.614 347.504 374.781 347.845 374.849C348.186 374.917 348.539 374.882 348.86 374.749C349.181 374.616 349.456 374.391 349.649 374.102C349.842 373.813 349.945 373.473 349.945 373.125C349.945 372.659 349.759 372.212 349.43 371.883C349.1 371.553 348.654 371.368 348.187 371.367ZM348.187 373.828C348.048 373.828 347.912 373.787 347.797 373.71C347.681 373.632 347.591 373.523 347.538 373.394C347.485 373.266 347.471 373.124 347.498 372.988C347.525 372.851 347.592 372.726 347.69 372.628C347.789 372.529 347.914 372.463 348.05 372.435C348.187 372.408 348.328 372.422 348.457 372.475C348.585 372.529 348.695 372.619 348.772 372.734C348.849 372.85 348.891 372.986 348.891 373.125C348.891 373.311 348.817 373.49 348.685 373.622C348.553 373.754 348.374 373.828 348.187 373.828Z" fill="#227DDE"/>
<path d="M350.494 369.901L348.899 369.103C348.627 368.683 347.409 366.805 347.06 366.349C347.028 366.306 346.985 366.271 346.937 366.247C346.889 366.223 346.835 366.211 346.781 366.211H345.124L344.478 364.919C344.39 364.743 344.256 364.596 344.089 364.493C343.922 364.39 343.73 364.335 343.534 364.336H336.82C336.634 364.336 336.455 364.41 336.323 364.542C336.192 364.674 336.117 364.853 336.117 365.039V372.422C336.117 372.702 336.229 372.97 336.426 373.167C336.624 373.365 336.892 373.476 337.172 373.477H337.202C337.15 373.174 337.165 372.864 337.246 372.568C337.327 372.272 337.472 371.997 337.67 371.762C337.868 371.528 338.114 371.339 338.393 371.21C338.671 371.081 338.974 371.014 339.281 371.014C339.588 371.014 339.891 371.081 340.17 371.21C340.448 371.339 340.695 371.528 340.893 371.762C341.091 371.997 341.235 372.272 341.316 372.568C341.397 372.864 341.412 373.174 341.361 373.477H346.108C346.057 373.178 346.071 372.872 346.149 372.58C346.227 372.288 346.366 372.015 346.559 371.782C346.751 371.548 346.992 371.359 347.264 371.226C347.536 371.093 347.833 371.021 348.136 371.014C348.438 371.006 348.739 371.064 349.017 371.183C349.295 371.302 349.545 371.479 349.748 371.703C349.952 371.927 350.105 372.192 350.197 372.481C350.289 372.769 350.318 373.074 350.282 373.374C350.461 373.288 350.613 373.153 350.72 372.985C350.826 372.816 350.883 372.621 350.883 372.422V370.53C350.883 370.399 350.847 370.271 350.778 370.16C350.71 370.049 350.611 369.959 350.494 369.901ZM343.031 368.32C343.031 368.414 342.994 368.503 342.928 368.569C342.862 368.635 342.773 368.672 342.68 368.672H341.859V369.492C341.859 369.585 341.822 369.675 341.756 369.741C341.69 369.807 341.601 369.844 341.508 369.844H340.805C340.711 369.844 340.622 369.807 340.556 369.741C340.49 369.675 340.453 369.585 340.453 369.492V368.672H339.633C339.54 368.672 339.45 368.635 339.384 368.569C339.318 368.503 339.281 368.414 339.281 368.32V367.617C339.281 367.524 339.318 367.435 339.384 367.369C339.45 367.303 339.54 367.266 339.633 367.266H340.453V366.445C340.453 366.352 340.49 366.263 340.556 366.197C340.622 366.131 340.711 366.094 340.805 366.094H341.508C341.601 366.094 341.69 366.131 341.756 366.197C341.822 366.263 341.859 366.352 341.859 366.445V367.266H342.68C342.773 367.266 342.862 367.303 342.928 367.369C342.994 367.435 343.031 367.524 343.031 367.617V368.32ZM346.312 370.664H345.873C345.78 370.664 345.69 370.627 345.624 370.561C345.559 370.495 345.521 370.406 345.521 370.313C345.521 370.219 345.559 370.13 345.624 370.064C345.69 369.998 345.78 369.961 345.873 369.961H346.312C346.406 369.961 346.495 369.998 346.561 370.064C346.627 370.13 346.664 370.219 346.664 370.313C346.664 370.406 346.627 370.495 346.561 370.561C346.495 370.627 346.406 370.664 346.312 370.664ZM348.15 369.17H345.844C345.751 369.17 345.661 369.133 345.595 369.067C345.529 369.001 345.492 368.912 345.492 368.818V367.031C345.492 366.938 345.529 366.849 345.595 366.783C345.661 366.717 345.751 366.68 345.844 366.68H346.644C346.701 366.68 346.757 366.694 346.808 366.72C346.858 366.747 346.902 366.786 346.934 366.833C347.359 367.456 347.985 368.416 348.298 368.899C348.315 368.925 348.325 368.956 348.326 368.987C348.327 369.019 348.32 369.05 348.305 369.078C348.29 369.106 348.267 369.129 348.24 369.145C348.213 369.161 348.182 369.17 348.15 369.17Z" fill="#227DDE"/>
<circle cx="201" cy="327" r="5" fill="white"/>
</g>
<defs>
<filter id="filter0_d_34_773" x="0" y="0" width="383" height="820" filterUnits="userSpaceOnUse" color-interpolation-filters="sRGB">
<feFlood flood-opacity="0" result="BackgroundImageFix"/>
<feColorMatrix in="SourceAlpha" type="matrix" values="0 0 0 0 0 0 0 0 0 0 0 0 0 0 0 0 0 0 127 0" result="hardAlpha"/>
<feOffset dy="4"/>
<feGaussianBlur stdDeviation="2"/>
<feColorMatrix type="matrix" values="0 0 0 0 0 0 0 0 0 0 0 0 0 0 0 0 0 0 0.5 0"/>
<feBlend mode="normal" in2="BackgroundImageFix" result="effect1_dropShadow_34_773"/>
<feBlend mode="normal" in="SourceGraphic" in2="effect1_dropShadow_34_773" result="shape"/>
</filter>
</defs>
</svg>
