<svg width="475" height="179" viewBox="0 0 475 179" fill="none" xmlns="http://www.w3.org/2000/svg">
<g filter="url(#filter0_d_6_4757)">
<rect x="50" y="60" width="375" height="79" fill="white"/>
</g>
<path d="M270.778 96.4478C270.396 96.4478 270.086 96.7602 270.086 97.1455C270.086 97.5308 270.396 97.8432 270.778 97.8432V96.4478ZM287.231 97.8432C287.613 97.8432 287.923 97.5308 287.923 97.1455C287.923 96.7602 287.613 96.4478 287.231 96.4478V97.8432ZM270.778 97.8432H287.231V96.4478H270.778V97.8432Z" fill="#ADADAD"/>
<path d="M282.677 100.081C282.295 100.081 281.985 100.393 281.985 100.779C281.985 101.164 282.295 101.476 282.677 101.476V100.081ZM282.686 101.476C283.068 101.476 283.378 101.164 283.378 100.779C283.378 100.393 283.068 100.081 282.686 100.081V101.476ZM282.677 101.476H282.686V100.081H282.677V101.476Z" fill="#ADADAD"/>
<path d="M278.581 100.081C278.199 100.081 277.889 100.393 277.889 100.779C277.889 101.164 278.199 101.476 278.581 101.476V100.081ZM278.59 101.476C278.972 101.476 279.282 101.164 279.282 100.779C279.282 100.393 278.972 100.081 278.59 100.081V101.476ZM278.581 101.476H278.59V100.081H278.581V101.476Z" fill="#ADADAD"/>
<path d="M274.476 100.081C274.094 100.081 273.784 100.393 273.784 100.779C273.784 101.164 274.094 101.476 274.476 101.476V100.081ZM274.485 101.476C274.867 101.476 275.177 101.164 275.177 100.779C275.177 100.393 274.867 100.081 274.485 100.081V101.476ZM274.476 101.476H274.485V100.081H274.476V101.476Z" fill="#ADADAD"/>
<path d="M282.677 103.696C282.295 103.696 281.985 104.009 281.985 104.394C281.985 104.779 282.295 105.092 282.677 105.092V103.696ZM282.686 105.092C283.068 105.092 283.378 104.779 283.378 104.394C283.378 104.009 283.068 103.696 282.686 103.696V105.092ZM282.677 105.092H282.686V103.696H282.677V105.092Z" fill="#ADADAD"/>
<path d="M278.581 103.696C278.199 103.696 277.889 104.009 277.889 104.394C277.889 104.779 278.199 105.092 278.581 105.092V103.696ZM278.59 105.092C278.972 105.092 279.282 104.779 279.282 104.394C279.282 104.009 278.972 103.696 278.59 103.696V105.092ZM278.581 105.092H278.59V103.696H278.581V105.092Z" fill="#ADADAD"/>
<path d="M274.476 103.696C274.094 103.696 273.784 104.009 273.784 104.394C273.784 104.779 274.094 105.092 274.476 105.092V103.696ZM274.485 105.092C274.867 105.092 275.177 104.779 275.177 104.394C275.177 104.009 274.867 103.696 274.485 103.696V105.092ZM274.476 105.092H274.485V103.696H274.476V105.092Z" fill="#ADADAD"/>
<path d="M282.997 90.6977C282.997 90.3124 282.687 90 282.305 90C281.923 90 281.613 90.3124 281.613 90.6977H282.997ZM281.613 93.7589C281.613 94.1442 281.923 94.4566 282.305 94.4566C282.687 94.4566 282.997 94.1442 282.997 93.7589H281.613ZM281.613 90.6977V93.7589H282.997V90.6977H281.613Z" fill="#ADADAD"/>
<path d="M275.541 90.6977C275.541 90.3124 275.231 90 274.848 90C274.466 90 274.156 90.3124 274.156 90.6977H275.541ZM274.156 93.7589C274.156 94.1442 274.466 94.4566 274.848 94.4566C275.231 94.4566 275.541 94.1442 275.541 93.7589H274.156ZM274.156 90.6977V93.7589H275.541V90.6977H274.156Z" fill="#ADADAD"/>
<path d="M287.308 96.4857L286.615 96.4836V96.4857H287.308ZM282.912 91.4689H275.096V92.8643H282.912V91.4689ZM275.096 91.4689C273.616 91.4689 272.325 91.8858 271.401 92.7715C270.471 93.6624 270 94.9426 270 96.4857H271.385C271.385 95.2315 271.76 94.3522 272.355 93.7828C272.954 93.2084 273.866 92.8643 275.096 92.8643V91.4689ZM270 96.4857V104.904H271.385V96.4857H270ZM270 104.904C270 106.466 270.469 107.764 271.396 108.67C272.32 109.572 273.612 110 275.096 110V108.605C273.87 108.605 272.96 108.254 272.36 107.668C271.763 107.085 271.385 106.184 271.385 104.904H270ZM275.096 110H282.904V108.605H275.096V110ZM282.904 110C284.389 110 285.68 109.581 286.603 108.692C287.532 107.799 288 106.516 288 104.974H286.615C286.615 106.23 286.241 107.112 285.647 107.683C285.049 108.259 284.138 108.605 282.904 108.605V110ZM288 104.974V96.4857H286.615V104.974H288ZM288 96.4879C288.005 94.9453 287.539 93.6641 286.611 92.7722C285.688 91.8855 284.396 91.4689 282.912 91.4689V92.8643C284.148 92.8643 285.058 93.2087 285.655 93.7822C286.247 94.3505 286.619 95.2288 286.615 96.4836L288 96.4879Z" fill="#ADADAD"/>
<path d="M200.931 97.6305C201.23 97.3892 201.275 96.9532 201.032 96.6566C200.789 96.3599 200.35 96.315 200.051 96.5562L200.931 97.6305ZM196.357 100.428L196.791 100.971L196.798 100.966L196.357 100.428ZM193.697 100.428L193.259 100.967L193.263 100.971L193.697 100.428ZM189.967 96.5544C189.667 96.3144 189.228 96.3611 188.986 96.6588C188.744 96.9564 188.791 97.3923 189.091 97.6323L189.967 96.5544ZM200.051 96.5562L195.917 99.8913L196.798 100.966L200.931 97.6305L200.051 96.5562ZM195.924 99.8861C195.397 100.301 194.657 100.301 194.131 99.8861L193.263 100.971C194.298 101.786 195.756 101.786 196.791 100.971L195.924 99.8861ZM194.135 99.8895L189.967 96.5544L189.091 97.6323L193.259 100.967L194.135 99.8895Z" fill="#ADADAD"/>
<path d="M199.566 108.308L199.568 107.615H199.566V108.308ZM190.434 108.308V107.615H190.432L190.434 108.308ZM199.564 109C202.859 109.009 205 106.309 205 103.174H203.605C203.605 105.709 201.933 107.622 199.568 107.615L199.564 109ZM205 103.174V96.8338H203.605V103.174H205ZM205 96.8338C205 93.6985 202.859 91 199.566 91V92.3846C201.933 92.3846 203.605 94.2993 203.605 96.8338H205ZM199.566 91H190.434V92.3846H199.566V91ZM190.434 91C187.141 91 185 93.6985 185 96.8338H186.395C186.395 94.2993 188.067 92.3846 190.434 92.3846V91ZM185 96.8338V103.174H186.395V96.8338H185ZM185 103.174C185 106.309 187.141 109.009 190.436 109L190.432 107.615C188.067 107.622 186.395 105.709 186.395 103.174H185ZM190.434 109H199.566V107.615H190.434V109Z" fill="#ADADAD"/>
<path fill-rule="evenodd" clip-rule="evenodd" d="M368.294 95.291C368.294 98.2281 365.939 100.583 363 100.583C360.062 100.583 357.706 98.2281 357.706 95.291C357.706 92.354 360.062 90 363 90C365.939 90 368.294 92.354 368.294 95.291ZM363 110C358.662 110 355 109.295 355 106.575C355 103.854 358.685 103.174 363 103.174C367.339 103.174 371 103.879 371 106.599C371 109.32 367.315 110 363 110Z" fill="#D9D9D9"/>
<defs>
<filter id="filter0_d_6_4757" x="0" y="0" width="475" height="179" filterUnits="userSpaceOnUse" color-interpolation-filters="sRGB">
<feFlood flood-opacity="0" result="BackgroundImageFix"/>
<feColorMatrix in="SourceAlpha" type="matrix" values="0 0 0 0 0 0 0 0 0 0 0 0 0 0 0 0 0 0 127 0" result="hardAlpha"/>
<feOffset dy="-10"/>
<feGaussianBlur stdDeviation="25"/>
<feColorMatrix type="matrix" values="0 0 0 0 0 0 0 0 0 0 0 0 0 0 0 0 0 0 0.1 0"/>
<feBlend mode="normal" in2="BackgroundImageFix" result="effect1_dropShadow_6_4757"/>
<feBlend mode="normal" in="SourceGraphic" in2="effect1_dropShadow_6_4757" result="shape"/>
</filter>
</defs>
</svg>
