<svg width="20" height="17" viewBox="0 0 20 17" fill="none" xmlns="http://www.w3.org/2000/svg">
<path d="M18.8 10.6643H14.603V14.6334C14.603 14.7134 14.603 14.7867 14.603 14.8633C14.603 14.93 14.603 14.9933 14.6003 15.06C14.5985 15.2029 14.5861 15.3454 14.5633 15.4865C14.5385 15.6267 14.4936 15.7625 14.43 15.8898C14.3649 16.0169 14.2799 16.1328 14.1781 16.233C14.0758 16.3332 13.9591 16.4175 13.8318 16.483C13.7029 16.5457 13.566 16.5906 13.4249 16.6163C13.2834 16.6385 13.1406 16.6507 12.9973 16.6529C12.9307 16.6529 12.866 16.6563 12.8007 16.6563H7.40165C7.33499 16.6563 7.27067 16.6529 7.20502 16.6529C7.06182 16.6507 6.91895 16.6385 6.77745 16.6163C6.63649 16.5906 6.4997 16.5457 6.37088 16.483C6.24359 16.4175 6.12686 16.3332 6.02462 16.233C5.92279 16.1329 5.83773 16.017 5.77268 15.8898C5.70907 15.7625 5.66418 15.6267 5.63938 15.4865C5.61645 15.3455 5.60398 15.2029 5.60205 15.06C5.60205 14.9933 5.59939 14.93 5.59939 14.8633C5.59939 14.7867 5.59939 14.7134 5.59939 14.6334V10.6643H1.33602C0.904788 10.6643 0.35158 9.73446 0.869463 9.21791C1.3097 8.78134 8.22879 1.8829 9.6768 0.446562C9.7832 0.315799 9.93349 0.228157 10.0997 0.199951H10.111C10.2548 0.207749 10.3883 0.276932 10.4776 0.389908C11.9256 1.82625 18.8683 8.78134 19.3089 9.21791C19.8271 9.73446 19.3932 10.6643 18.8 10.6643Z" fill="#030319"/>
</svg>
