<svg width="20" height="17" viewBox="0 0 20 17" fill="none" xmlns="http://www.w3.org/2000/svg">
<path d="M18.8002 10.6645H14.6032V14.6336C14.6032 14.7136 14.6032 14.7869 14.6032 14.8635C14.6032 14.9302 14.6032 14.9935 14.6005 15.0602C14.5987 15.2031 14.5863 15.3456 14.5635 15.4867C14.5387 15.6269 14.4938 15.7627 14.4302 15.89C14.3651 16.0171 14.2801 16.133 14.1783 16.2332C14.076 16.3334 13.9593 16.4177 13.832 16.4832C13.7031 16.5459 13.5662 16.5908 13.4251 16.6165C13.2836 16.6387 13.1408 16.6509 12.9975 16.6531C12.9309 16.6531 12.8662 16.6565 12.8009 16.6565H7.40178C7.33512 16.6565 7.2708 16.6531 7.20515 16.6531C7.06195 16.6509 6.91908 16.6387 6.77758 16.6165C6.63662 16.5908 6.49983 16.5459 6.37101 16.4832C6.24372 16.4177 6.12699 16.3334 6.02475 16.2332C5.92292 16.1331 5.83786 16.0172 5.77281 15.89C5.7092 15.7627 5.66431 15.6269 5.63951 15.4867C5.61658 15.3457 5.60411 15.2031 5.60218 15.0602C5.60218 14.9935 5.59952 14.9302 5.59952 14.8635C5.59952 14.7869 5.59952 14.7136 5.59952 14.6336V10.6645H1.33615C0.90491 10.6645 0.351702 9.7347 0.869585 9.21815C1.30982 8.78158 8.22892 1.88315 9.67693 0.446806C9.78333 0.316043 9.93362 0.228402 10.0998 0.200195H10.1112C10.2549 0.207993 10.3885 0.277176 10.4777 0.390152C11.9258 1.8265 18.8685 8.78158 19.3091 9.21815C19.8273 9.7347 19.3934 10.6645 18.8002 10.6645Z" fill="#030319"/>
</svg>
