<svg width="20" height="17" viewBox="0 0 20 17" fill="none" xmlns="http://www.w3.org/2000/svg">
<path d="M18.8 10.6645H14.603V14.6336C14.603 14.7136 14.603 14.7869 14.603 14.8635C14.603 14.9302 14.603 14.9935 14.6003 15.0602C14.5985 15.2031 14.5861 15.3456 14.5633 15.4867C14.5385 15.6269 14.4936 15.7627 14.43 15.89C14.3649 16.0171 14.2799 16.133 14.1781 16.2332C14.0758 16.3334 13.9591 16.4177 13.8318 16.4832C13.7029 16.5459 13.566 16.5908 13.4249 16.6165C13.2834 16.6387 13.1406 16.6509 12.9973 16.6531C12.9307 16.6531 12.866 16.6565 12.8007 16.6565H7.40159C7.33493 16.6565 7.27061 16.6531 7.20496 16.6531C7.06176 16.6509 6.91889 16.6387 6.77739 16.6165C6.63643 16.5908 6.49964 16.5459 6.37082 16.4832C6.24353 16.4177 6.1268 16.3334 6.02456 16.2332C5.92273 16.1331 5.83767 16.0172 5.77262 15.89C5.70901 15.7627 5.66412 15.6269 5.63932 15.4867C5.61639 15.3457 5.60392 15.2031 5.60199 15.0602C5.60199 14.9935 5.59933 14.9302 5.59933 14.8635C5.59933 14.7869 5.59933 14.7136 5.59933 14.6336V10.6645H1.33596C0.904727 10.6645 0.351519 9.7347 0.869402 9.21815C1.30964 8.78158 8.22873 1.88315 9.67674 0.446806C9.78314 0.316043 9.93343 0.228402 10.0996 0.200195H10.111C10.2548 0.207993 10.3883 0.277176 10.4776 0.390152C11.9256 1.8265 18.8683 8.78158 19.3089 9.21815C19.8271 9.7347 19.3932 10.6645 18.8 10.6645Z" fill="#030319"/>
</svg>
