<svg width="16" height="12" viewBox="0 0 16 12" fill="none" xmlns="http://www.w3.org/2000/svg">
<path fill-rule="evenodd" clip-rule="evenodd" d="M8.33034 2.60839C10.5462 2.60848 12.6774 3.45992 14.2833 4.98672C14.4042 5.1046 14.5975 5.10311 14.7166 4.98339L15.8726 3.81672C15.9329 3.756 15.9666 3.67375 15.9661 3.58817C15.9656 3.50259 15.931 3.42073 15.87 3.36072C11.6549 -0.678833 5.0051 -0.678833 0.789998 3.36072C0.728939 3.42069 0.694296 3.50252 0.693733 3.5881C0.69317 3.67368 0.726734 3.75595 0.786998 3.81672L1.94334 4.98339C2.06236 5.10329 2.25581 5.10478 2.37667 4.98672C3.98282 3.45982 6.11423 2.60838 8.33034 2.60839ZM8.33033 6.40404C9.54782 6.40397 10.7219 6.8565 11.6243 7.67371C11.7464 7.78969 11.9387 7.78718 12.0577 7.66804L13.2123 6.50138C13.2731 6.44018 13.3069 6.35717 13.306 6.2709C13.3051 6.18464 13.2697 6.10232 13.2077 6.04238C10.4595 3.486 6.20353 3.486 3.45533 6.04238C3.39325 6.10232 3.35784 6.18468 3.35702 6.27097C3.35621 6.35726 3.39006 6.44027 3.451 6.50138L4.60533 7.66804C4.72432 7.78718 4.9166 7.78969 5.03867 7.67371C5.94054 6.85704 7.11365 6.40455 8.33033 6.40404ZM10.6433 8.95787C10.6451 9.04437 10.6111 9.12778 10.5493 9.18838L8.552 11.204C8.49345 11.2633 8.41362 11.2966 8.33033 11.2966C8.24704 11.2966 8.16722 11.2633 8.10867 11.204L6.111 9.18838C6.04929 9.12773 6.01534 9.0443 6.01717 8.9578C6.019 8.87129 6.05644 8.78937 6.12067 8.73138C7.39624 7.6525 9.26443 7.6525 10.54 8.73138C10.6042 8.78942 10.6416 8.87136 10.6433 8.95787Z" fill="#D9D9D9"/>
</svg>
